<svg width="49" height="48" viewBox="0 0 49 48" fill="none" xmlns="http://www.w3.org/2000/svg">
<mask id="mask0_600_1209" style="mask-type:alpha" maskUnits="userSpaceOnUse" x="0" y="0" width="49" height="48">
<rect x="0.5" width="48" height="48" fill="#D9D9D9"/>
</mask>
<g mask="url(#mask0_600_1209)">
<path d="M28.35 22.1004L19.85 13.6004L22.7 10.8004L28.35 16.4504L39.7 5.15039L42.5 7.95039L28.35 22.1004ZM16.5 37.0004L30.4 40.8004L42.3 37.1004C42.1333 36.8004 41.8917 36.5421 41.575 36.3254C41.2583 36.1087 40.9 36.0004 40.5 36.0004H30.4C29.5 36.0004 28.7833 35.9671 28.25 35.9004C27.7167 35.8337 27.1667 35.7004 26.6 35.5004L21.95 33.9504L23.05 30.0504L27.1 31.4004C27.6667 31.5671 28.3333 31.7004 29.1 31.8004C29.8667 31.9004 31 31.9671 32.5 32.0004C32.5 31.6337 32.3917 31.2837 32.175 30.9504C31.9583 30.6171 31.7 30.4004 31.4 30.3004L19.7 26.0004H16.5V37.0004ZM4.5 44.0004V22.0004H19.7C19.9333 22.0004 20.1667 22.0254 20.4 22.0754C20.6333 22.1254 20.85 22.1837 21.05 22.2504L32.8 26.6004C33.9 27.0004 34.7917 27.7004 35.475 28.7004C36.1583 29.7004 36.5 30.8004 36.5 32.0004H40.5C42.1667 32.0004 43.5833 32.5504 44.75 33.6504C45.9167 34.7504 46.5 36.2004 46.5 38.0004V40.0004L30.5 45.0004L16.5 41.1004V44.0004H4.5ZM8.5 40.0004H12.5V26.0004H8.5V40.0004Z" fill="url(#paint0_linear_600_1209)"/>
</g>
<defs>
<linearGradient id="paint0_linear_600_1209" x1="25.5" y1="5.15039" x2="25.5" y2="45.0004" gradientUnits="userSpaceOnUse">
<stop stop-color="#48B96B"/>
<stop offset="1" stop-color="#B2FAC8"/>
</linearGradient>
</defs>
</svg>
