<svg width="48" height="49" viewBox="0 0 48 49" fill="none" xmlns="http://www.w3.org/2000/svg">
<mask id="mask0_612_1155" style="mask-type:alpha" maskUnits="userSpaceOnUse" x="0" y="0" width="48" height="49">
<rect y="0.228516" width="48" height="48" fill="#D9D9D9"/>
</mask>
<g mask="url(#mask0_612_1155)">
<path d="M14.8008 34.7285C13.4008 35.8952 11.9424 36.4285 10.4258 36.3285C8.90909 36.2285 7.58409 35.7118 6.45075 34.7785C5.31742 33.8452 4.54242 32.6202 4.12575 31.1035C3.70909 29.5868 3.98409 28.0285 4.95075 26.4285L8.70075 20.2285C7.86742 19.4952 7.20909 18.6118 6.72575 17.5785C6.24242 16.5452 6.00075 15.4285 6.00075 14.2285C6.00075 12.0285 6.78409 10.1452 8.35075 8.57852C9.91742 7.01185 11.8008 6.22852 14.0008 6.22852C16.2008 6.22852 18.0841 7.01185 19.6508 8.57852C21.2174 10.1452 22.0008 12.0285 22.0008 14.2285C22.0008 16.4285 21.2174 18.3118 19.6508 19.8785C18.0841 21.4452 16.2008 22.2285 14.0008 22.2285C13.7008 22.2285 13.4008 22.2118 13.1008 22.1785C12.8008 22.1452 12.5174 22.0952 12.2508 22.0285L8.40075 28.5285C8.03409 29.1285 7.91742 29.7202 8.05075 30.3035C8.18409 30.8869 8.46742 31.3618 8.90075 31.7285C9.33409 32.0952 9.85075 32.3035 10.4508 32.3535C11.0508 32.4035 11.6341 32.1952 12.2008 31.7285L33.2008 13.6785C34.6008 12.5118 36.0674 11.9868 37.6008 12.1035C39.1341 12.2202 40.4674 12.7452 41.6008 13.6785C42.7341 14.6118 43.5008 15.8368 43.9008 17.3535C44.3008 18.8702 44.0174 20.4285 43.0508 22.0285L39.3008 28.2285C40.1341 28.9618 40.7924 29.8452 41.2758 30.8785C41.7591 31.9118 42.0008 33.0285 42.0008 34.2285C42.0008 36.4285 41.2174 38.3119 39.6508 39.8785C38.0841 41.4452 36.2008 42.2285 34.0008 42.2285C31.8008 42.2285 29.9174 41.4452 28.3508 39.8785C26.7841 38.3119 26.0008 36.4285 26.0008 34.2285C26.0008 32.0285 26.7841 30.1452 28.3508 28.5785C29.9174 27.0118 31.8008 26.2285 34.0008 26.2285C34.3008 26.2285 34.5924 26.2452 34.8758 26.2785C35.1591 26.3118 35.4341 26.3618 35.7008 26.4285L39.6008 19.9285C39.9674 19.3285 40.0841 18.7368 39.9508 18.1535C39.8174 17.5702 39.5341 17.0952 39.1008 16.7285C38.6674 16.3618 38.1508 16.1535 37.5508 16.1035C36.9508 16.0535 36.3674 16.2618 35.8008 16.7285L14.8008 34.7285ZM14.0008 18.2285C15.1008 18.2285 16.0424 17.8368 16.8258 17.0535C17.6091 16.2702 18.0008 15.3285 18.0008 14.2285C18.0008 13.1285 17.6091 12.1868 16.8258 11.4035C16.0424 10.6202 15.1008 10.2285 14.0008 10.2285C12.9008 10.2285 11.9591 10.6202 11.1758 11.4035C10.3924 12.1868 10.0008 13.1285 10.0008 14.2285C10.0008 15.3285 10.3924 16.2702 11.1758 17.0535C11.9591 17.8368 12.9008 18.2285 14.0008 18.2285ZM34.0008 38.2285C35.1008 38.2285 36.0424 37.8368 36.8258 37.0535C37.6091 36.2702 38.0008 35.3285 38.0008 34.2285C38.0008 33.1285 37.6091 32.1868 36.8258 31.4035C36.0424 30.6202 35.1008 30.2285 34.0008 30.2285C32.9008 30.2285 31.9591 30.6202 31.1758 31.4035C30.3924 32.1868 30.0008 33.1285 30.0008 34.2285C30.0008 35.3285 30.3924 36.2702 31.1758 37.0535C31.9591 37.8368 32.9008 38.2285 34.0008 38.2285Z" fill="url(#paint0_linear_612_1155)"/>
</g>
<defs>
<linearGradient id="paint0_linear_612_1155" x1="24.0069" y1="6.22852" x2="24.0069" y2="42.2285" gradientUnits="userSpaceOnUse">
<stop stop-color="#48B96B"/>
<stop offset="1" stop-color="#B2FAC8"/>
</linearGradient>
</defs>
</svg>
