<svg width="48" height="48" viewBox="0 0 48 48" fill="none" xmlns="http://www.w3.org/2000/svg">
<mask id="mask0_507_1455" style="mask-type:alpha" maskUnits="userSpaceOnUse" x="0" y="0" width="48" height="48">
<rect width="48" height="48" fill="#D9D9D9"/>
</mask>
<g mask="url(#mask0_507_1455)">
<path d="M4 42V38H22V15.65C21.1333 15.35 20.3833 14.8833 19.75 14.25C19.1167 13.6167 18.65 12.8667 18.35 12H12L18 26C18 27.6667 17.3167 29.0833 15.95 30.25C14.5833 31.4167 12.9333 32 11 32C9.06667 32 7.41667 31.4167 6.05 30.25C4.68333 29.0833 4 27.6667 4 26L10 12H6V8H18.35C18.75 6.83333 19.4667 5.875 20.5 5.125C21.5333 4.375 22.7 4 24 4C25.3 4 26.4667 4.375 27.5 5.125C28.5333 5.875 29.25 6.83333 29.65 8H42V12H38L44 26C44 27.6667 43.3167 29.0833 41.95 30.25C40.5833 31.4167 38.9333 32 37 32C35.0667 32 33.4167 31.4167 32.05 30.25C30.6833 29.0833 30 27.6667 30 26L36 12H29.65C29.35 12.8667 28.8833 13.6167 28.25 14.25C27.6167 14.8833 26.8667 15.35 26 15.65V38H44V42H4ZM33.25 26H40.75L37 17.3L33.25 26ZM7.25 26H14.75L11 17.3L7.25 26ZM24 12C24.5667 12 25.0417 11.8083 25.425 11.425C25.8083 11.0417 26 10.5667 26 10C26 9.43333 25.8083 8.95833 25.425 8.575C25.0417 8.19167 24.5667 8 24 8C23.4333 8 22.9583 8.19167 22.575 8.575C22.1917 8.95833 22 9.43333 22 10C22 10.5667 22.1917 11.0417 22.575 11.425C22.9583 11.8083 23.4333 12 24 12Z" fill="url(#paint0_linear_507_1455)"/>
</g>
<defs>
<linearGradient id="paint0_linear_507_1455" x1="24" y1="4" x2="24" y2="42" gradientUnits="userSpaceOnUse">
<stop stop-color="#48B96B"/>
<stop offset="1" stop-color="#B2FAC8"/>
</linearGradient>
</defs>
</svg>
