<svg width="48" height="49" viewBox="0 0 48 49" fill="none" xmlns="http://www.w3.org/2000/svg">
<mask id="mask0_600_1231" style="mask-type:alpha" maskUnits="userSpaceOnUse" x="0" y="0" width="48" height="49">
<rect y="0.419922" width="48" height="48" fill="#D9D9D9"/>
</mask>
<g mask="url(#mask0_600_1231)">
<path d="M2 40.4199V32.4199C2 31.2866 2.39167 30.3366 3.175 29.5699C3.95833 28.8033 4.9 28.4199 6 28.4199H12.55C13.2167 28.4199 13.85 28.5866 14.45 28.9199C15.05 29.2533 15.5333 29.7033 15.9 30.2699C16.8667 31.5699 18.0583 32.5866 19.475 33.3199C20.8917 34.0533 22.4 34.4199 24 34.4199C25.6333 34.4199 27.1583 34.0533 28.575 33.3199C29.9917 32.5866 31.1667 31.5699 32.1 30.2699C32.5333 29.7033 33.0417 29.2533 33.625 28.9199C34.2083 28.5866 34.8167 28.4199 35.45 28.4199H42C43.1333 28.4199 44.0833 28.8033 44.85 29.5699C45.6167 30.3366 46 31.2866 46 32.4199V40.4199H32V35.8699C30.8333 36.7033 29.575 37.3366 28.225 37.7699C26.875 38.2033 25.4667 38.4199 24 38.4199C22.5667 38.4199 21.1667 38.1949 19.8 37.7449C18.4333 37.2949 17.1667 36.6533 16 35.8199V40.4199H2ZM24 32.4199C22.7333 32.4199 21.5333 32.1283 20.4 31.5449C19.2667 30.9616 18.3167 30.1533 17.55 29.1199C16.9833 28.2866 16.275 27.6283 15.425 27.1449C14.575 26.6616 13.65 26.4199 12.65 26.4199C13.3833 25.1866 14.9333 24.2116 17.3 23.4949C19.6667 22.7783 21.9 22.4199 24 22.4199C26.1 22.4199 28.3333 22.7783 30.7 23.4949C33.0667 24.2116 34.6167 25.1866 35.35 26.4199C34.3833 26.4199 33.4667 26.6616 32.6 27.1449C31.7333 27.6283 31.0167 28.2866 30.45 29.1199C29.7167 30.1866 28.7833 31.0033 27.65 31.5699C26.5167 32.1366 25.3 32.4199 24 32.4199ZM8 26.4199C6.33333 26.4199 4.91667 25.8366 3.75 24.6699C2.58333 23.5033 2 22.0866 2 20.4199C2 18.7199 2.58333 17.2949 3.75 16.1449C4.91667 14.9949 6.33333 14.4199 8 14.4199C9.7 14.4199 11.125 14.9949 12.275 16.1449C13.425 17.2949 14 18.7199 14 20.4199C14 22.0866 13.425 23.5033 12.275 24.6699C11.125 25.8366 9.7 26.4199 8 26.4199ZM40 26.4199C38.3333 26.4199 36.9167 25.8366 35.75 24.6699C34.5833 23.5033 34 22.0866 34 20.4199C34 18.7199 34.5833 17.2949 35.75 16.1449C36.9167 14.9949 38.3333 14.4199 40 14.4199C41.7 14.4199 43.125 14.9949 44.275 16.1449C45.425 17.2949 46 18.7199 46 20.4199C46 22.0866 45.425 23.5033 44.275 24.6699C43.125 25.8366 41.7 26.4199 40 26.4199ZM24 20.4199C22.3333 20.4199 20.9167 19.8366 19.75 18.6699C18.5833 17.5033 18 16.0866 18 14.4199C18 12.7199 18.5833 11.2949 19.75 10.1449C20.9167 8.99492 22.3333 8.41992 24 8.41992C25.7 8.41992 27.125 8.99492 28.275 10.1449C29.425 11.2949 30 12.7199 30 14.4199C30 16.0866 29.425 17.5033 28.275 18.6699C27.125 19.8366 25.7 20.4199 24 20.4199Z" fill="url(#paint0_linear_600_1231)"/>
</g>
<defs>
<linearGradient id="paint0_linear_600_1231" x1="24" y1="8.41992" x2="24" y2="40.4199" gradientUnits="userSpaceOnUse">
<stop stop-color="#48B96B"/>
<stop offset="1" stop-color="#B2FAC8"/>
</linearGradient>
</defs>
</svg>
