<svg width="49" height="48" viewBox="0 0 49 48" fill="none" xmlns="http://www.w3.org/2000/svg">
<mask id="mask0_383_1264" style="mask-type:alpha" maskUnits="userSpaceOnUse" x="0" y="0" width="49" height="48">
<rect x="0.5" width="48" height="48" fill="#D9D9D9"/>
</mask>
<g mask="url(#mask0_383_1264)">
<path d="M24.5 42.7L21.6 40.1C18.2333 37.0667 15.45 34.45 13.25 32.25C11.05 30.05 9.3 28.075 8 26.325C6.7 24.575 5.79167 22.9667 5.275 21.5C4.75833 20.0333 4.5 18.5333 4.5 17C4.5 13.8667 5.55 11.25 7.65 9.15C9.75 7.05 12.3667 6 15.5 6C17.2333 6 18.8833 6.36667 20.45 7.1C22.0167 7.83333 23.3667 8.86667 24.5 10.2C25.6333 8.86667 26.9833 7.83333 28.55 7.1C30.1167 6.36667 31.7667 6 33.5 6C36.6333 6 39.25 7.05 41.35 9.15C43.45 11.25 44.5 13.8667 44.5 17C44.5 18.5333 44.2417 20.0333 43.725 21.5C43.2083 22.9667 42.3 24.575 41 26.325C39.7 28.075 37.95 30.05 35.75 32.25C33.55 34.45 30.7667 37.0667 27.4 40.1L24.5 42.7ZM24.5 37.3C27.7 34.4333 30.3333 31.975 32.4 29.925C34.4667 27.875 36.1 26.0917 37.3 24.575C38.5 23.0583 39.3333 21.7083 39.8 20.525C40.2667 19.3417 40.5 18.1667 40.5 17C40.5 15 39.8333 13.3333 38.5 12C37.1667 10.6667 35.5 10 33.5 10C31.9333 10 30.4833 10.4417 29.15 11.325C27.8167 12.2083 26.9 13.3333 26.4 14.7H22.6C22.1 13.3333 21.1833 12.2083 19.85 11.325C18.5167 10.4417 17.0667 10 15.5 10C13.5 10 11.8333 10.6667 10.5 12C9.16667 13.3333 8.5 15 8.5 17C8.5 18.1667 8.73333 19.3417 9.2 20.525C9.66667 21.7083 10.5 23.0583 11.7 24.575C12.9 26.0917 14.5333 27.875 16.6 29.925C18.6667 31.975 21.3 34.4333 24.5 37.3Z" fill="url(#paint0_linear_383_1264)"/>
</g>
<defs>
<linearGradient id="paint0_linear_383_1264" x1="24.5" y1="6" x2="24.5" y2="42.7" gradientUnits="userSpaceOnUse">
<stop stop-color="#48B96B"/>
<stop offset="1" stop-color="#B2FAC8"/>
</linearGradient>
</defs>
</svg>
