<svg width="45" height="40" viewBox="0 0 45 40" fill="none" xmlns="http://www.w3.org/2000/svg">
<path d="M22.2505 36C22.3838 36 22.5171 35.9667 22.6505 35.9C22.7838 35.8333 22.8838 35.7667 22.9505 35.7L39.3505 19.3C39.7505 18.9 40.0421 18.45 40.2255 17.95C40.4088 17.45 40.5005 16.95 40.5005 16.45C40.5005 15.9167 40.4088 15.4083 40.2255 14.925C40.0421 14.4417 39.7505 14.0167 39.3505 13.65L30.8505 5.15C30.4838 4.75 30.0588 4.45833 29.5755 4.275C29.0921 4.09167 28.5838 4 28.0505 4C27.5505 4 27.0505 4.09167 26.5505 4.275C26.0505 4.45833 25.6005 4.75 25.2005 5.15L24.6505 5.7L28.3505 9.45C28.8505 9.91667 29.2171 10.45 29.4505 11.05C29.6838 11.65 29.8005 12.2833 29.8005 12.95C29.8005 14.35 29.3255 15.525 28.3755 16.475C27.4255 17.425 26.2505 17.9 24.8505 17.9C24.1838 17.9 23.5421 17.7833 22.9255 17.55C22.3088 17.3167 21.7671 16.9667 21.3005 16.5L17.5505 12.8L8.80047 21.55C8.70047 21.65 8.62547 21.7583 8.57547 21.875C8.52547 21.9917 8.50047 22.1167 8.50047 22.25C8.50047 22.5167 8.60047 22.7583 8.80047 22.975C9.00047 23.1917 9.2338 23.3 9.50047 23.3C9.6338 23.3 9.76714 23.2667 9.90047 23.2C10.0338 23.1333 10.1338 23.0667 10.2005 23L17.0005 16.2L19.8005 19L13.0505 25.8C12.9505 25.9 12.8755 26.0083 12.8255 26.125C12.7755 26.2417 12.7505 26.3667 12.7505 26.5C12.7505 26.7667 12.8505 27 13.0505 27.2C13.2505 27.4 13.4838 27.5 13.7505 27.5C13.8838 27.5 14.0171 27.4667 14.1505 27.4C14.2838 27.3333 14.3838 27.2667 14.4505 27.2L21.2505 20.45L24.0505 23.25L17.3005 30.05C17.2005 30.1167 17.1255 30.2167 17.0755 30.35C17.0255 30.4833 17.0005 30.6167 17.0005 30.75C17.0005 31.0167 17.1005 31.25 17.3005 31.45C17.5005 31.65 17.7338 31.75 18.0005 31.75C18.1338 31.75 18.2588 31.725 18.3755 31.675C18.4921 31.625 18.6005 31.55 18.7005 31.45L25.5005 24.7L28.3005 27.5L21.5005 34.3C21.4005 34.4 21.3255 34.5083 21.2755 34.625C21.2255 34.7417 21.2005 34.8667 21.2005 35C21.2005 35.2667 21.3088 35.5 21.5255 35.7C21.7421 35.9 21.9838 36 22.2505 36ZM22.2005 40C20.9671 40 19.8755 39.5917 18.9255 38.775C17.9755 37.9583 17.4171 36.9333 17.2505 35.7C16.1171 35.5333 15.1671 35.0667 14.4005 34.3C13.6338 33.5333 13.1671 32.5833 13.0005 31.45C11.8671 31.2833 10.9255 30.8083 10.1755 30.025C9.42547 29.2417 8.96714 28.3 8.80047 27.2C7.5338 27.0333 6.50047 26.4833 5.70047 25.55C4.90047 24.6167 4.50047 23.5167 4.50047 22.25C4.50047 21.5833 4.62547 20.9417 4.87547 20.325C5.12547 19.7083 5.4838 19.1667 5.95047 18.7L17.5505 7.15L24.1005 13.7C24.1671 13.8 24.2671 13.875 24.4005 13.925C24.5338 13.975 24.6671 14 24.8005 14C25.1005 14 25.3505 13.9083 25.5505 13.725C25.7505 13.5417 25.8505 13.3 25.8505 13C25.8505 12.8667 25.8255 12.7333 25.7755 12.6C25.7255 12.4667 25.6505 12.3667 25.5505 12.3L18.4005 5.15C18.0338 4.75 17.6088 4.45833 17.1255 4.275C16.6421 4.09167 16.1338 4 15.6005 4C15.1005 4 14.6005 4.09167 14.1005 4.275C13.6005 4.45833 13.1505 4.75 12.7505 5.15L5.70047 12.25C5.40047 12.55 5.15047 12.9 4.95047 13.3C4.75047 13.7 4.61714 14.1 4.55047 14.5C4.4838 14.9 4.4838 15.3083 4.55047 15.725C4.61714 16.1417 4.75047 16.5333 4.95047 16.9L2.05047 19.8C1.4838 19.0333 1.06714 18.1917 0.800469 17.275C0.533802 16.3583 0.433802 15.4333 0.500469 14.5C0.567135 13.5667 0.800469 12.6583 1.20047 11.775C1.60047 10.8917 2.15047 10.1 2.85047 9.4L9.90047 2.35C10.7005 1.58333 11.5921 1 12.5755 0.6C13.5588 0.2 14.5671 0 15.6005 0C16.6338 0 17.6421 0.2 18.6255 0.6C19.6088 1 20.4838 1.58333 21.2505 2.35L21.8005 2.9L22.3505 2.35C23.1505 1.58333 24.0421 1 25.0255 0.6C26.0088 0.2 27.0171 0 28.0505 0C29.0838 0 30.0921 0.2 31.0755 0.6C32.0588 1 32.9338 1.58333 33.7005 2.35L42.1505 10.8C42.9171 11.5667 43.5005 12.45 43.9005 13.45C44.3005 14.45 44.5005 15.4667 44.5005 16.5C44.5005 17.5333 44.3005 18.5417 43.9005 19.525C43.5005 20.5083 42.9171 21.3833 42.1505 22.15L25.7505 38.5C25.2838 38.9667 24.7421 39.3333 24.1255 39.6C23.5088 39.8667 22.8671 40 22.2005 40Z" fill="url(#paint0_linear_383_1236)"/>
<defs>
<linearGradient id="paint0_linear_383_1236" x1="22.4905" y1="0" x2="22.4905" y2="40" gradientUnits="userSpaceOnUse">
<stop stop-color="#48B96B"/>
<stop offset="1" stop-color="#B2FAC8"/>
</linearGradient>
</defs>
</svg>
