<svg width="49" height="48" viewBox="0 0 49 48" fill="none" xmlns="http://www.w3.org/2000/svg">
<mask id="mask0_383_1224" style="mask-type:alpha" maskUnits="userSpaceOnUse" x="0" y="0" width="49" height="48">
<rect x="0.5" width="48" height="48" fill="#D9D9D9"/>
</mask>
<g mask="url(#mask0_383_1224)">
<path d="M24.5 44C23.4 44 22.4583 43.6083 21.675 42.825C20.8917 42.0417 20.5 41.1 20.5 40H28.5C28.5 41.1 28.1083 42.0417 27.325 42.825C26.5417 43.6083 25.6 44 24.5 44ZM16.5 38V34H32.5V38H16.5ZM17 32C14.7 30.6333 12.875 28.8 11.525 26.5C10.175 24.2 9.5 21.7 9.5 19C9.5 14.8333 10.9583 11.2917 13.875 8.375C16.7917 5.45833 20.3333 4 24.5 4C28.6667 4 32.2083 5.45833 35.125 8.375C38.0417 11.2917 39.5 14.8333 39.5 19C39.5 21.7 38.825 24.2 37.475 26.5C36.125 28.8 34.3 30.6333 32 32H17ZM18.2 28H30.8C32.3 26.9333 33.4583 25.6167 34.275 24.05C35.0917 22.4833 35.5 20.8 35.5 19C35.5 15.9333 34.4333 13.3333 32.3 11.2C30.1667 9.06667 27.5667 8 24.5 8C21.4333 8 18.8333 9.06667 16.7 11.2C14.5667 13.3333 13.5 15.9333 13.5 19C13.5 20.8 13.9083 22.4833 14.725 24.05C15.5417 25.6167 16.7 26.9333 18.2 28Z" fill="url(#paint0_linear_383_1224)"/>
</g>
<defs>
<linearGradient id="paint0_linear_383_1224" x1="24.5" y1="4" x2="24.5" y2="44" gradientUnits="userSpaceOnUse">
<stop stop-color="#48B96B"/>
<stop offset="1" stop-color="#B2FAC8"/>
</linearGradient>
</defs>
</svg>
