<svg width="49" height="48" viewBox="0 0 49 48" fill="none" xmlns="http://www.w3.org/2000/svg">
<mask id="mask0_383_1274" style="mask-type:alpha" maskUnits="userSpaceOnUse" x="0" y="0" width="49" height="48">
<rect x="0.5" width="48" height="48" fill="#D9D9D9"/>
</mask>
<g mask="url(#mask0_383_1274)">
<path d="M24.5 40C27 40 29.125 39.125 30.875 37.375C32.625 35.625 33.5 33.5 33.5 31C33.5 28.5 32.625 26.375 30.875 24.625C29.125 22.875 27 22 24.5 22C22 22 19.875 22.875 18.125 24.625C16.375 26.375 15.5 28.5 15.5 31C15.5 33.5 16.375 35.625 18.125 37.375C19.875 39.125 22 40 24.5 40ZM18.65 19.4C19.3167 19.0333 20.025 18.7417 20.775 18.525C21.525 18.3083 22.2833 18.1667 23.05 18.1L18 8H13L18.65 19.4ZM30.35 19.4L36.05 8H31L26.75 16.5L27.7 18.4C28.1667 18.5333 28.6167 18.675 29.05 18.825C29.4833 18.975 29.9167 19.1667 30.35 19.4ZM13.3 37.6C12.7333 36.6333 12.2917 35.5917 11.975 34.475C11.6583 33.3583 11.5 32.2 11.5 31C11.5 29.8 11.6583 28.6417 11.975 27.525C12.2917 26.4083 12.7333 25.3667 13.3 24.4C11.9 24.8667 10.75 25.6917 9.85 26.875C8.95 28.0583 8.5 29.4333 8.5 31C8.5 32.5667 8.95 33.9417 9.85 35.125C10.75 36.3083 11.9 37.1333 13.3 37.6ZM35.7 37.6C37.1 37.1333 38.25 36.3083 39.15 35.125C40.05 33.9417 40.5 32.5667 40.5 31C40.5 29.4333 40.05 28.0583 39.15 26.875C38.25 25.6917 37.1 24.8667 35.7 24.4C36.2667 25.3667 36.7083 26.4083 37.025 27.525C37.3417 28.6417 37.5 29.8 37.5 31C37.5 32.2 37.3417 33.3583 37.025 34.475C36.7083 35.5917 36.2667 36.6333 35.7 37.6ZM24.5 44C23.1667 44 21.8917 43.8083 20.675 43.425C19.4583 43.0417 18.3333 42.5167 17.3 41.85C17 41.9167 16.7 41.9583 16.4 41.975C16.1 41.9917 15.7833 42 15.45 42C12.4167 42 9.83333 40.9333 7.7 38.8C5.56667 36.6667 4.5 34.0833 4.5 31.05C4.5 28.15 5.46667 25.6667 7.4 23.6C9.33333 21.5333 11.7167 20.3833 14.55 20.15L6.5 4H20.5L24.5 12L28.5 4H42.5L34.5 20.05C37.3333 20.3167 39.7083 21.4833 41.625 23.55C43.5417 25.6167 44.5 28.1 44.5 31C44.5 34.0667 43.4333 36.6667 41.3 38.8C39.1667 40.9333 36.5667 42 33.5 42C33.2 42 32.8917 41.9917 32.575 41.975C32.2583 41.9583 31.95 41.9167 31.65 41.85C30.6167 42.5167 29.5 43.0417 28.3 43.425C27.1 43.8083 25.8333 44 24.5 44ZM20.8 36.5L22.2 31.95L18.5 29.3H23.05L24.5 24.5L25.95 29.3H30.5L26.8 31.95L28.2 36.5L24.5 33.7L20.8 36.5Z" fill="url(#paint0_linear_383_1274)"/>
</g>
<defs>
<linearGradient id="paint0_linear_383_1274" x1="24.5" y1="4" x2="24.5" y2="44" gradientUnits="userSpaceOnUse">
<stop stop-color="#48B96B"/>
<stop offset="1" stop-color="#B2FAC8"/>
</linearGradient>
</defs>
</svg>
