<svg width="48" height="48" viewBox="0 0 48 48" fill="none" xmlns="http://www.w3.org/2000/svg">
<mask id="mask0_507_1435" style="mask-type:alpha" maskUnits="userSpaceOnUse" x="0" y="0" width="48" height="48">
<rect width="48" height="48" fill="#D9D9D9"/>
</mask>
<g mask="url(#mask0_507_1435)">
<path d="M21.9 31.1L33.2 19.8L30.35 16.95L21.9 25.4L17.7 21.2L14.85 24.05L21.9 31.1ZM24 44C19.3667 42.8333 15.5417 40.175 12.525 36.025C9.50833 31.875 8 27.2667 8 22.2V10L24 4L40 10V22.2C40 27.2667 38.4917 31.875 35.475 36.025C32.4583 40.175 28.6333 42.8333 24 44ZM24 39.8C27.4667 38.7 30.3333 36.5 32.6 33.2C34.8667 29.9 36 26.2333 36 22.2V12.75L24 8.25L12 12.75V22.2C12 26.2333 13.1333 29.9 15.4 33.2C17.6667 36.5 20.5333 38.7 24 39.8Z" fill="url(#paint0_linear_507_1435)"/>
</g>
<defs>
<linearGradient id="paint0_linear_507_1435" x1="24" y1="4" x2="24" y2="44" gradientUnits="userSpaceOnUse">
<stop stop-color="#48B96B"/>
<stop offset="1" stop-color="#B2FAC8"/>
</linearGradient>
</defs>
</svg>
