<svg width="104" height="27" viewBox="0 0 104 27" fill="none" xmlns="http://www.w3.org/2000/svg">
<path d="M10.4906 0.000976562C10.4906 0.000976562 4.40815 5.21449 8.91612 13.4333C12.1492 19.3276 6.14846 21.6793 3.17038 19.9588C-0.943976 17.5798 -3.24128 5.72196 10.4881 0.000976562H10.4906Z" fill="white"/>
<path d="M2.73926 21.2584C2.73926 21.2584 9.22518 23.9171 15.5849 17.0326C20.484 11.73 24.9127 16.2058 23.9225 19.4983C22.5436 24.083 13.7084 31.3066 2.73926 21.2609V21.2584Z" fill="white"/>
<path d="M25.4032 17.7853C25.4032 17.7853 24.5516 9.81896 15.2262 8.87826C8.53727 8.20243 10.0003 1.92445 13.1047 0.44655C17.3973 -1.59577 28.4679 3.22906 25.4032 17.7828V17.7853Z" fill="white"/>
<path d="M30.1934 22.0086L37.7066 1.20166H41.4348L48.9481 22.0086H45.106L43.4276 17.1986H35.6569L33.9785 22.0086H30.1934ZM36.7387 14.124H42.373L39.9817 7.40785C39.8108 6.86819 39.6103 6.24187 39.5559 5.8136C39.4692 6.21216 39.2984 6.83848 39.1004 7.40785L36.7387 14.124Z" fill="white"/>
<path d="M49.1089 15.0347C49.1089 10.6505 51.6711 7.52145 55.9117 7.52145C57.8748 7.52145 59.6126 8.3458 60.4939 9.74201V0.83252H63.9374V22.0083H60.7489L60.5211 19.8175C59.6671 21.439 57.8451 22.3797 55.7112 22.3797C51.6414 22.3797 49.1089 19.3917 49.1089 15.0372V15.0347ZM60.4667 14.9208C60.4667 12.3884 58.9021 10.6233 56.4811 10.6233C54.06 10.6233 52.5821 12.4156 52.5821 14.9208C52.5821 17.4261 54.0624 19.1912 56.4811 19.1912C58.8997 19.1912 60.4667 17.4558 60.4667 14.9208Z" fill="white"/>
<path d="M66.4327 17.9955C66.4327 15.4061 68.3116 13.7821 71.6412 13.5271L75.8546 13.2152V12.9033C75.8546 10.9971 74.7158 10.2272 72.9508 10.2272C70.901 10.2272 69.7623 11.0813 69.7623 12.5617H66.8015C66.8015 9.51675 69.3068 7.52393 73.1191 7.52393C76.9314 7.52393 79.2386 9.57368 79.2386 13.4727V22.0108H76.1937L75.9363 19.9338C75.3397 21.3845 73.431 22.3822 71.2402 22.3822C68.2522 22.3822 66.4302 20.6468 66.4302 17.998L66.4327 17.9955ZM75.8818 16.3171V15.5769L72.9508 15.8046C70.7871 16.0027 69.9628 16.7156 69.9628 17.8544C69.9628 19.1342 70.8169 19.7606 72.3814 19.7606C74.5153 19.7606 75.8818 18.4807 75.8818 16.3171Z" fill="white"/>
<path d="M82.1626 22.0084V7.94727H85.3511L85.6358 9.59846C86.3463 8.43247 87.7697 7.52148 89.7922 7.52148C91.9262 7.52148 93.4065 8.57359 94.1467 10.1975C94.8597 8.57607 96.5084 7.52148 98.6448 7.52148C102.061 7.52148 103.94 9.57122 103.94 12.8167V22.0108H100.497V13.7277C100.497 11.7076 99.4147 10.653 97.7635 10.653C96.1123 10.653 94.8027 11.7349 94.8027 14.0396V22.0084H91.3295V13.698C91.3295 11.7349 90.2774 10.6803 88.6263 10.6803C86.9751 10.6803 85.6383 11.7621 85.6383 14.0396V22.0084H82.1651H82.1626Z" fill="white"/>
</svg>
