<svg width="50" height="44" viewBox="0 0 50 44" fill="none" xmlns="http://www.w3.org/2000/svg">
<path d="M30.7922 43.0293V29.2482C30.7922 24.4286 31.5645 20.0859 33.1091 16.2202C34.6537 12.3043 36.4225 8.96567 38.4155 6.20443C40.4584 3.44319 42.2023 1.38481 43.6472 0.0292969L49.701 3.34278C48.5551 4.6983 47.1599 6.48055 45.5157 8.68954C43.9213 10.8985 42.5012 13.4339 41.2556 16.2955C40.0598 19.1069 39.4619 22.1694 39.4619 25.4829H50V43.0293H30.7922ZM0 43.0293V29.2482C0 24.4286 0.772297 20.0859 2.31689 16.2202C3.86149 12.3043 5.63029 8.96567 7.62332 6.20443C9.66617 3.44319 11.4101 1.38481 12.855 0.0292969L18.9088 3.34278C17.7628 4.6983 16.3677 6.48055 14.7235 8.68954C13.129 10.8985 11.709 13.4339 10.4634 16.2955C9.26756 19.1069 8.66966 22.1694 8.66966 25.4829H19.2078V43.0293H0Z" fill="#EAF5F4" fill-opacity="0.12"/>
</svg>
