<svg width="75" height="75" viewBox="0 0 75 75" fill="none" xmlns="http://www.w3.org/2000/svg">
<rect x="0.5" y="0.5" width="74" height="74" rx="37" fill="#48B96B" fill-opacity="0.25"/>
<rect x="0.5" y="0.5" width="74" height="74" rx="37" stroke="#48B96B"/>
<mask id="mask0_274_793" style="mask-type:alpha" maskUnits="userSpaceOnUse" x="18" y="18" width="40" height="40">
<rect x="18" y="18" width="40" height="40" fill="#D9D9D9"/>
</mask>
<g mask="url(#mask0_274_793)">
<path d="M38.0003 53L26.3337 46.6667V36.6667L19.667 33L38.0003 23L56.3337 33V46.3333H53.0003V34.8333L49.667 36.6667V46.6667L38.0003 53ZM38.0003 39.1667L49.417 33L38.0003 26.8333L26.5837 33L38.0003 39.1667ZM38.0003 49.2083L46.3337 44.7083V38.4167L38.0003 43L29.667 38.4167V44.7083L38.0003 49.2083Z" fill="url(#paint0_linear_274_793)"/>
</g>
<defs>
<linearGradient id="paint0_linear_274_793" x1="38.0003" y1="23" x2="38.0003" y2="53" gradientUnits="userSpaceOnUse">
<stop stop-color="#48B96B"/>
<stop offset="1" stop-color="#B2FAC8"/>
</linearGradient>
</defs>
</svg>
