<svg width="131" height="25" viewBox="0 0 131 25" fill="none" xmlns="http://www.w3.org/2000/svg">
<g clip-path="url(#clip0_620_4588)">
<path d="M28.7809 7.13491C28.7809 8.18454 28.2784 9.12277 27.4961 9.7169C27.1768 10.0387 21.5375 13.7248 22.1464 20.7554V20.8272C22.1464 20.9336 22.139 21.04 22.1291 21.144V21.1663C22.0969 21.4634 22.0276 21.7505 21.9212 22.0154V22.0204V22.0253L21.7207 22.4437C21.7207 22.4437 21.7207 22.4437 21.7182 22.4437C21.1488 23.4314 20.0744 24.0973 18.8416 24.0973C17.0864 24.0973 15.6481 22.7506 15.5367 21.045C15.5318 20.9732 15.5293 20.9014 15.5293 20.8296C15.5293 20.5425 15.5664 20.2652 15.6382 19.9978C15.9823 15.4899 15.1109 11.5884 13.9351 8.51874L7.2907 24.0973H0.728027L8.66463 5.48619C9.08299 4.5034 10.046 3.86719 11.1129 3.86719H15.9378C16.012 7.13491 16.4923 11.3012 18.1534 14.6482C18.4628 15.272 18.8144 15.8662 19.2129 16.4232C22.8792 14.3709 22.1885 8.39991 22.1613 7.13738C22.1192 5.33271 23.6441 3.86966 25.4711 3.86966C27.2981 3.86966 28.7834 5.33271 28.7834 7.13738L28.7809 7.13491Z" fill="white"/>
<path d="M47.0012 6.76123V21.3298H43.6097L37.1782 13.5665V21.3298H33.1406V6.76123H36.5321L42.9636 14.5245V6.76123H47.0012Z" fill="white"/>
<path d="M61.6115 18.1463V21.3298H49.9146V6.76123H61.3417V9.94478H53.9942V12.4005H60.4678V15.4801H53.9942V18.1438H61.6115V18.1463Z" fill="white"/>
<path d="M70.269 17.4581H68.0212V21.3298H63.8994V6.76123H70.5586C71.8756 6.76123 73.0218 6.97908 73.9922 7.41725C74.9626 7.85542 75.7127 8.47926 76.24 9.29124C76.7673 10.1032 77.0297 11.0563 77.0297 12.153C77.0297 13.2496 76.7822 14.126 76.292 14.9107C75.7994 15.6955 75.0963 16.3094 74.1804 16.7525L77.3243 21.3323H72.9129L70.269 17.4605V17.4581ZM72.2247 10.5686C71.7939 10.1948 71.1552 10.0067 70.3111 10.0067H68.0212V14.272H70.3111C71.1577 14.272 71.7964 14.0888 72.2247 13.72C72.6554 13.3536 72.8708 12.8288 72.8708 12.148C72.8708 11.4672 72.6554 10.94 72.2247 10.5661V10.5686Z" fill="white"/>
<path d="M94.0785 6.76123L87.8351 21.3298H83.7777L77.5542 6.76123H82.0077L85.9612 16.2525L89.9988 6.76123H94.0785Z" fill="white"/>
<path d="M96.9179 19.8519C95.7172 18.6736 95.1182 17.0001 95.1182 14.8365V6.76123H99.2399V14.7102C99.2399 17.0422 100.163 18.2057 102.008 18.2057C103.852 18.2057 104.755 17.0397 104.755 14.7102V6.76123H108.813V14.8365C108.813 17.0001 108.214 18.6736 107.013 19.8519C105.813 21.0303 104.132 21.6219 101.966 21.6219C99.7994 21.6219 98.1185 21.0327 96.9179 19.8519Z" fill="white"/>
<path d="M113.289 21.1833C112.18 20.8912 111.276 20.5025 110.583 20.0173L111.935 16.9798C112.586 17.4106 113.343 17.7572 114.202 18.0196C115.061 18.2845 115.908 18.4157 116.742 18.4157C118.324 18.4157 119.114 18.0196 119.114 17.2299C119.114 16.814 118.888 16.5045 118.438 16.304C117.987 16.1035 117.262 15.8906 116.262 15.6703C115.165 15.4351 114.249 15.1801 113.514 14.9103C112.779 14.6405 112.148 14.2072 111.62 13.6106C111.093 13.014 110.831 12.2095 110.831 11.197C110.831 10.3083 111.073 9.50865 111.558 8.79322C112.044 8.07779 112.769 7.51336 113.734 7.09747C114.7 6.68158 115.881 6.47363 117.282 6.47363C118.24 6.47363 119.183 6.58256 120.111 6.79545C121.04 7.01083 121.859 7.32522 122.567 7.74359L121.297 10.8034C119.908 10.0533 118.564 9.67946 117.26 9.67946C116.44 9.67946 115.844 9.80077 115.47 10.0434C115.096 10.286 114.908 10.6028 114.908 10.9915C114.908 11.3802 115.131 11.6723 115.574 11.8654C116.017 12.0609 116.732 12.2615 117.718 12.4694C118.827 12.7046 119.747 12.9596 120.475 13.2294C121.203 13.4992 121.834 13.93 122.369 14.5192C122.904 15.1083 123.171 15.9104 123.171 16.9229C123.171 17.7968 122.929 18.589 122.443 19.2945C121.958 20.0025 121.228 20.5669 120.257 20.9902C119.287 21.4135 118.106 21.624 116.72 21.624C115.542 21.624 114.395 21.4779 113.286 21.1858L113.289 21.1833Z" fill="white"/>
<path d="M124.441 0.681052H123.193V0.228027H126.204V0.681052H124.956V3.86708H124.441V0.681052Z" fill="white"/>
<path d="M130.145 3.86708L130.14 1.21577L128.825 3.42396H128.585L127.271 1.23062V3.86708H126.771V0.228027H127.196L128.714 2.78527L130.212 0.228027H130.637L130.642 3.86708H130.142H130.145Z" fill="white"/>
</g>
<defs>
<clipPath id="clip0_620_4588">
<rect width="129.917" height="23.8717" fill="white" transform="translate(0.728027 0.228027)"/>
</clipPath>
</defs>
</svg>
