<svg width="1513" height="445" viewBox="0 0 1513 445" fill="none" xmlns="http://www.w3.org/2000/svg">
<g clip-path="url(#clip0_1062_9469)">
<path d="M0 32.0293C0 14.3562 14.3269 0.0292969 32 0.0292969H1481C1498.67 0.0292969 1513 14.3562 1513 32.0293V444.029H0V32.0293Z" fill="#152B2F"/>
<g opacity="0.02" clip-path="url(#clip1_1062_9469)">
<path d="M1335.28 37.0141C1328.86 35.2381 1323.27 31.1119 1319.62 25.2712L1294.7 -14.7698C1290.7 -21.1838 1285.09 -26.4013 1278.39 -29.8786L1269.18 -34.6743L1284.9 -64.8049L1294.11 -60.0092C1306.2 -53.7107 1316.35 -44.2809 1323.55 -32.7337L1339.59 -6.95462C1340.94 -4.76905 1344.13 -4.76295 1345.48 -6.9494L1373.75 -52.3091C1384.04 -68.8257 1398.72 -82.0687 1416.18 -90.6077L1432.77 -98.7396L1447.71 -68.2071L1431.11 -60.0751C1419.38 -54.3247 1409.51 -45.4171 1402.59 -34.3376L1365.82 24.6815C1360.96 32.477 1352.64 37.694 1343.46 37.9868C1340.65 38.0823 1337.89 37.7556 1335.26 37.0281L1335.28 37.0141Z" fill="#49B96B"/>
<path d="M1560.28 99.2446C1553.86 97.4686 1548.28 93.3423 1544.62 87.5017L1519.7 47.4607C1515.7 41.0467 1510.09 35.8292 1503.39 32.3519L1494.18 27.5562L1509.9 -2.57447L1519.11 2.22127C1531.2 8.51981 1541.35 17.9496 1548.55 29.4968L1564.59 55.2759C1565.95 57.4614 1569.13 57.4676 1570.48 55.2811L1598.75 9.92144C1609.04 -6.59517 1623.72 -19.8382 1641.18 -28.3772L1657.77 -36.5092L1672.71 -5.97655L1656.11 2.1554C1644.38 7.90581 1634.51 16.8134 1627.59 27.8929L1590.82 86.912C1585.96 94.7075 1577.65 99.9245 1568.47 100.217C1565.65 100.313 1562.89 99.9861 1560.26 99.2586L1560.28 99.2446Z" fill="#49B96B"/>
<path d="M1535.58 -148.488C1542.19 -147.535 1548.22 -144.138 1552.58 -138.791L1582.32 -102.184C1587.08 -96.3308 1593.31 -91.8573 1600.4 -89.2323L1610.12 -85.6263L1598.29 -53.7533L1588.56 -57.3593C1575.8 -62.0974 1564.54 -70.1671 1555.95 -80.7459L1536.81 -104.299C1535.19 -106.287 1532.04 -105.888 1530.96 -103.563L1508.59 -55.0336C1500.43 -37.3635 1487.55 -22.3963 1471.27 -11.7199L1455.81 -1.58792L1437.17 -30.0217L1452.63 -40.1536C1463.54 -47.3168 1472.25 -57.4025 1477.71 -69.2581L1506.82 -132.416C1510.67 -140.763 1518.26 -146.971 1527.34 -148.416C1530.13 -148.872 1532.9 -148.876 1535.6 -148.483L1535.58 -148.488Z" fill="#49B96B"/>
<path d="M381.554 19.2163C375.133 17.4402 369.549 13.314 365.896 7.47335L340.971 -32.5677C336.977 -38.9816 331.362 -44.1992 324.662 -47.6764L315.453 -52.4721L331.178 -82.6028L340.387 -77.8071C352.47 -71.5086 362.625 -62.0787 369.821 -50.5316L385.865 -24.7525C387.218 -22.5669 390.402 -22.5608 391.756 -24.7472L420.022 -70.1069C430.316 -86.6235 444.993 -99.8666 462.45 -108.406L479.045 -116.537L493.982 -86.0049L477.387 -77.8729C465.657 -72.1225 455.781 -63.2149 448.865 -52.1354L412.095 6.88361C407.232 14.6792 398.918 19.8962 389.739 20.189C386.922 20.2845 384.16 19.9578 381.529 19.2303L381.554 19.2163Z" fill="#49B96B"/>
<path d="M611.99 82.9487C605.569 81.1727 599.985 77.0464 596.332 71.2058L571.407 31.1647C567.413 24.7508 561.798 19.5332 555.098 16.056L545.889 11.2603L561.614 -18.8704L570.823 -14.0747C582.906 -7.77613 593.061 1.6537 600.257 13.2009L616.301 38.98C617.654 41.1655 620.838 41.1717 622.192 38.9852L650.458 -6.37449C660.752 -22.8911 675.429 -36.1341 692.886 -44.6731L709.481 -52.8051L724.418 -22.2725L707.823 -14.1405C696.093 -8.39007 686.217 0.517482 679.301 11.597L642.531 70.616C637.668 78.4116 629.354 83.6286 620.175 83.9214C617.358 84.0169 614.596 83.6902 611.966 82.9627L611.99 82.9487Z" fill="#49B96B"/>
<path d="M822.059 141.049C815.638 139.273 810.054 135.147 806.402 129.306L781.476 89.2653C777.483 82.8514 771.868 77.6338 765.167 74.1566L755.958 69.3609L771.683 39.2302L780.892 44.0259C792.975 50.3244 803.131 59.7543 810.327 71.3015L826.371 97.0805C827.723 99.2661 830.907 99.2722 832.262 97.0858L860.527 51.7261C870.821 35.2095 885.498 21.9664 902.955 13.4275L919.55 5.29553L934.487 35.8281L917.893 43.9601C906.162 49.7105 896.286 58.6181 889.37 69.6976L852.6 128.717C847.738 136.512 839.424 141.729 830.244 142.022C827.427 142.117 824.665 141.791 822.035 141.063L822.059 141.049Z" fill="#49B96B"/>
<path d="M1052.5 204.783C1046.07 203.007 1040.49 198.88 1036.84 193.04L1011.91 152.999C1007.92 146.585 1002.3 141.367 995.603 137.89L986.394 133.094L1002.12 102.964L1011.33 107.759C1023.41 114.058 1033.57 123.488 1040.76 135.035L1056.81 160.814C1058.16 163 1061.34 163.006 1062.7 160.819L1090.96 115.459C1101.26 98.9429 1115.93 85.6998 1133.39 77.1609L1149.99 69.0289L1164.92 99.5615L1148.33 107.694C1136.6 113.444 1126.72 122.351 1119.81 133.431L1083.04 192.45C1078.17 200.246 1069.86 205.463 1060.68 205.755C1057.86 205.851 1055.1 205.524 1052.47 204.797L1052.5 204.783Z" fill="#49B96B"/>
<path d="M1272.08 265.514C1265.66 263.738 1260.08 259.612 1256.42 253.771L1231.5 213.73C1227.5 207.316 1221.89 202.099 1215.19 198.621L1205.98 193.826L1221.7 163.695L1230.91 168.491C1243 174.789 1253.15 184.219 1260.35 195.766L1276.39 221.545C1277.75 223.731 1280.93 223.737 1282.28 221.551L1310.55 176.191C1320.84 159.674 1335.52 146.431 1352.98 137.892L1369.57 129.76L1384.51 160.293L1367.91 168.425C1356.18 174.175 1346.31 183.083 1339.39 194.162L1302.62 253.181C1297.76 260.977 1289.45 266.194 1280.27 266.487C1277.45 266.582 1274.69 266.256 1272.06 265.528L1272.08 265.514Z" fill="#49B96B"/>
<path d="M1497.08 327.745C1490.66 325.969 1485.08 321.842 1481.42 316.002L1456.5 275.961C1452.51 269.547 1446.89 264.329 1440.19 260.852L1430.98 256.056L1446.71 225.926L1455.91 230.721C1468 237.02 1478.15 246.45 1485.35 257.997L1501.39 283.776C1502.75 285.961 1505.93 285.968 1507.28 283.781L1535.55 238.421C1545.84 221.905 1560.52 208.662 1577.98 200.123L1594.57 191.991L1609.51 222.523L1592.92 230.655C1581.18 236.406 1571.31 245.313 1564.39 256.393L1527.62 315.412C1522.76 323.207 1514.45 328.425 1505.27 328.717C1502.45 328.813 1499.69 328.486 1497.06 327.759L1497.08 327.745Z" fill="#49B96B"/>
<path d="M581.856 -166.286C588.463 -165.333 594.498 -161.936 598.85 -156.589L628.597 -119.982C633.35 -114.129 639.587 -109.655 646.669 -107.03L656.395 -103.424L644.56 -71.5512L634.835 -75.1572C622.07 -79.8952 610.81 -87.9649 602.222 -98.5438L583.084 -122.097C581.469 -124.084 578.318 -123.686 577.238 -121.361L554.863 -72.8315C546.707 -55.1614 533.822 -40.1941 517.544 -29.5177L502.083 -19.3857L483.441 -47.8195L498.903 -57.9515C509.816 -65.1146 518.519 -75.2003 523.984 -87.056L553.091 -150.214C556.94 -158.561 564.529 -164.769 573.611 -166.214C576.402 -166.67 579.173 -166.674 581.875 -166.281L581.856 -166.286Z" fill="#49B96B"/>
<path d="M812.292 -102.554C818.899 -101.601 824.934 -98.2033 829.286 -92.8565L859.033 -56.2496C863.786 -50.3962 870.023 -45.9227 877.105 -43.2977L886.831 -39.6917L874.996 -7.81875L865.271 -11.4247C852.506 -16.1628 841.246 -24.2325 832.658 -34.8113L813.52 -58.3644C811.905 -60.352 808.755 -59.9533 807.674 -57.6286L785.299 -9.09906C777.143 8.57101 764.259 23.5383 747.98 34.2147L732.519 44.3467L713.877 15.9129L729.339 5.78097C740.252 -1.38217 748.955 -11.4679 754.42 -23.3235L783.527 -86.4816C787.377 -94.8281 794.965 -101.037 804.047 -102.481C806.838 -102.937 809.609 -102.942 812.311 -102.548L812.292 -102.554Z" fill="#49B96B"/>
<path d="M1022.36 -44.4521C1028.97 -43.4991 1035 -40.1017 1039.35 -34.7549L1069.1 1.8519C1073.86 7.7053 1080.09 12.1788 1087.17 14.8038L1096.9 18.4098L1085.07 50.2828L1075.34 46.6768C1062.58 41.9388 1051.32 33.8691 1042.73 23.2902L1023.59 -0.262882C1021.97 -2.2505 1018.82 -1.85173 1017.74 0.472978L995.368 49.0025C987.212 66.6726 974.328 81.6399 958.049 92.3163L942.588 102.448L923.947 74.0144L939.408 63.8825C950.322 56.7194 959.024 46.6337 964.49 34.778L993.597 -28.38C997.446 -36.7266 1005.03 -42.9353 1014.12 -44.3795C1016.91 -44.8359 1019.68 -44.8401 1022.38 -44.4467L1022.36 -44.4521Z" fill="#49B96B"/>
<path d="M1252.8 19.2803C1259.4 20.2333 1265.44 23.6307 1269.79 28.9775L1299.54 65.5843C1304.29 71.4377 1310.53 75.9113 1317.61 78.5362L1327.34 82.1422L1315.5 114.015L1305.78 110.409C1293.01 105.671 1281.75 97.6015 1273.16 87.0226L1254.03 63.4695C1252.41 61.4819 1249.26 61.8807 1248.18 64.2054L1225.8 112.735C1217.65 130.405 1204.76 145.372 1188.49 156.049L1173.02 166.181L1154.38 137.747L1169.84 127.615C1180.76 120.452 1189.46 110.366 1194.93 98.5104L1224.03 35.3524C1227.88 27.0059 1235.47 20.7971 1244.55 19.3529C1247.34 18.8965 1250.11 18.8923 1252.82 19.2857L1252.8 19.2803Z" fill="#49B96B"/>
<path d="M1472.38 80.0127C1478.99 80.9657 1485.03 84.3631 1489.38 89.7099L1519.12 126.317C1523.88 132.17 1530.11 136.644 1537.2 139.269L1546.92 142.875L1535.09 174.748L1525.36 171.142C1512.6 166.404 1501.34 158.334 1492.75 147.755L1473.61 124.202C1472 122.214 1468.85 122.613 1467.77 124.938L1445.39 173.467C1437.23 191.137 1424.35 206.105 1408.07 216.781L1392.61 226.913L1373.97 198.479L1389.43 188.347C1400.34 181.184 1409.05 171.099 1414.51 159.243L1443.62 96.0848C1447.47 87.7383 1455.06 81.5295 1464.14 80.0853C1466.93 79.6289 1469.7 79.6247 1472.4 80.0181L1472.38 80.0127Z" fill="#49B96B"/>
<path d="M318.356 247.718C311.934 245.942 306.35 241.816 302.698 235.975L277.773 195.934C273.779 189.52 268.164 184.303 261.463 180.826L252.254 176.03L267.979 145.899L277.188 150.695C289.272 156.993 299.427 166.423 306.623 177.97L322.667 203.75C324.02 205.935 327.204 205.941 328.558 203.755L356.823 158.395C367.117 141.878 381.794 128.635 399.251 120.096L415.846 111.964L430.784 142.497L414.189 150.629C402.459 156.379 392.583 165.287 385.666 176.367L348.897 235.386C344.034 243.181 335.72 248.398 326.54 248.691C323.724 248.786 320.962 248.46 318.331 247.732L318.356 247.718Z" fill="#49B96B"/>
<path d="M548.792 311.452C542.371 309.676 536.787 305.549 533.134 299.709L508.209 259.668C504.215 253.254 498.6 248.036 491.9 244.559L482.691 239.763L498.416 209.633L507.625 214.428C519.708 220.727 529.863 230.157 537.059 241.704L553.103 267.483C554.456 269.669 557.64 269.675 558.994 267.488L587.26 222.129C597.554 205.612 612.231 192.369 629.688 183.83L646.283 175.698L661.22 206.231L644.625 214.362C632.895 220.113 623.019 229.02 616.103 240.1L579.333 299.119C574.47 306.915 566.156 312.132 556.977 312.424C554.16 312.52 551.398 312.193 548.768 311.466L548.792 311.452Z" fill="#49B96B"/>
<path d="M758.861 369.552C752.44 367.776 746.856 363.65 743.203 357.809L718.278 317.768C714.285 311.354 708.669 306.137 701.969 302.66L692.76 297.864L708.485 267.733L717.694 272.529C729.777 278.827 739.932 288.257 747.128 299.804L763.172 325.584C764.525 327.769 767.709 327.775 769.063 325.589L797.329 280.229C807.623 263.712 822.3 250.469 839.757 241.93L856.352 233.798L871.289 264.331L854.694 272.463C842.964 278.213 833.088 287.121 826.172 298.201L789.402 357.22C784.539 365.015 776.225 370.232 767.046 370.525C764.229 370.62 761.467 370.294 758.837 369.566L758.861 369.552Z" fill="#49B96B"/>
<path d="M93.3547 185.489C86.9333 183.713 81.3492 179.587 77.6969 173.746L52.7715 133.705C48.778 127.291 43.1627 122.073 36.4622 118.596L27.2531 113.8L42.978 83.6697L52.1872 88.4654C64.2704 94.764 74.4257 104.194 81.6218 115.741L97.6658 141.52C99.0185 143.706 102.202 143.712 103.557 141.525L131.822 96.1656C142.116 79.649 156.793 66.406 174.25 57.867L190.845 49.735L205.783 80.2676L189.188 88.3996C177.457 94.15 167.581 103.058 160.665 114.137L123.896 173.156C119.033 180.952 110.719 186.169 101.539 186.461C98.7226 186.557 95.9605 186.23 93.33 185.503L93.3547 185.489Z" fill="#49B96B"/>
<path d="M989.297 433.286C982.876 431.51 977.292 427.383 973.64 421.543L948.714 381.502C944.721 375.088 939.105 369.87 932.405 366.393L923.196 361.597L938.921 331.467L948.13 336.262C960.213 342.561 970.368 351.991 977.564 363.538L993.608 389.317C994.961 391.502 998.145 391.509 999.499 389.322L1027.76 343.962C1038.06 327.446 1052.74 314.203 1070.19 305.664L1086.79 297.532L1101.73 328.064L1085.13 336.196C1073.4 341.947 1063.52 350.854 1056.61 361.934L1019.84 420.953C1014.98 428.749 1006.66 433.966 997.482 434.258C994.665 434.354 991.903 434.027 989.273 433.3L989.297 433.286Z" fill="#49B96B"/>
<path d="M1208.88 494.017C1202.46 492.241 1196.88 488.115 1193.23 482.274L1168.3 442.233C1164.31 435.819 1158.69 430.602 1151.99 427.124L1142.78 422.329L1158.51 392.198L1167.72 396.994C1179.8 403.292 1189.95 412.722 1197.15 424.269L1213.19 450.048C1214.55 452.234 1217.73 452.24 1219.09 450.054L1247.35 404.694C1257.64 388.177 1272.32 374.934 1289.78 366.395L1306.37 358.263L1321.31 388.796L1304.72 396.928C1292.99 402.678 1283.11 411.586 1276.19 422.665L1239.42 481.684C1234.56 489.48 1226.25 494.697 1217.07 494.99C1214.25 495.085 1211.49 494.759 1208.86 494.031L1208.88 494.017Z" fill="#49B96B"/>
<path d="M1433.88 556.248C1427.46 554.472 1421.88 550.345 1418.23 544.505L1393.3 504.464C1389.31 498.05 1383.69 492.832 1376.99 489.355L1367.78 484.559L1383.51 454.428L1392.72 459.224C1404.8 465.523 1414.96 474.953 1422.15 486.5L1438.2 512.279C1439.55 514.464 1442.73 514.471 1444.09 512.284L1472.35 466.924C1482.65 450.408 1497.32 437.165 1514.78 428.626L1531.37 420.494L1546.31 451.026L1529.72 459.158C1517.99 464.909 1508.11 473.816 1501.19 484.896L1464.43 543.915C1459.56 551.71 1451.25 556.927 1442.07 557.22C1439.25 557.316 1436.49 556.989 1433.86 556.262L1433.88 556.248Z" fill="#49B96B"/>
<path d="M293.656 -0.0136228C300.264 0.939342 306.299 4.33674 310.65 9.68357L340.398 46.2904C345.151 52.1438 351.388 56.6173 358.47 59.2423L368.196 62.8483L356.361 94.7213L346.636 91.1153C333.871 86.3773 322.611 78.3075 314.022 67.7287L294.885 44.1756C293.269 42.188 290.119 42.5868 289.039 44.9115L266.664 93.441C258.508 111.111 245.623 126.078 229.345 136.755L213.883 146.887L195.242 118.453L210.704 108.321C221.617 101.158 230.32 91.0721 235.785 79.2165L264.892 16.0585C268.741 7.71193 276.33 1.50316 285.412 0.0589655C288.203 -0.397463 290.974 -0.401643 293.676 -0.00827605L293.656 -0.0136228Z" fill="#49B96B"/>
<path d="M63.2203 -63.746C69.8277 -62.7931 75.8631 -59.3957 80.2142 -54.0488L109.962 -17.442C114.715 -11.5886 120.952 -7.11508 128.034 -4.49011L137.76 -0.884111L125.925 30.9889L116.2 27.3829C103.435 22.6449 92.1747 14.5751 83.5865 3.99624L64.449 -19.5569C62.8334 -21.5445 59.6832 -21.1456 58.603 -18.8209L36.2277 29.7086C28.0717 47.3787 15.1872 62.346 -1.09116 73.0224L-16.5527 83.1543L-35.1939 54.7205L-19.7324 44.5886C-8.81893 37.4254 -0.116249 27.3397 5.34896 15.484L34.456 -47.6739C38.3052 -56.0205 45.894 -62.2293 54.9758 -63.6735C57.7672 -64.1299 60.5375 -64.1341 63.2396 -63.7407L63.2203 -63.746Z" fill="#49B96B"/>
<path d="M518.658 62.2168C525.265 63.1698 531.301 66.5672 535.652 71.914L565.4 108.521C570.152 114.374 576.39 118.848 583.471 121.473L593.197 125.079L581.363 156.952L571.637 153.346C558.872 148.608 547.612 140.538 539.024 129.959L519.887 106.406C518.271 104.418 515.121 104.817 514.04 107.142L491.665 155.671C483.509 173.342 470.625 188.309 454.346 198.985L438.885 209.117L420.244 180.683L435.705 170.551C446.619 163.388 455.321 153.303 460.786 141.447L489.893 78.289C493.743 69.9424 501.331 63.7336 510.413 62.2894C513.205 61.833 515.975 61.8288 518.677 62.2222L518.658 62.2168Z" fill="#49B96B"/>
<path d="M749.094 125.949C755.701 126.902 761.737 130.3 766.088 135.646L795.836 172.253C800.588 178.107 806.826 182.58 813.908 185.205L823.633 188.811L811.799 220.684L802.073 217.078C789.308 212.34 778.048 204.27 769.46 193.692L750.323 170.138C748.707 168.151 745.557 168.55 744.477 170.874L722.101 219.404C713.945 237.074 701.061 252.041 684.782 262.718L669.321 272.85L650.68 244.416L666.141 234.284C677.055 227.121 685.757 217.035 691.223 205.179L720.33 142.021C724.179 133.675 731.768 127.466 740.849 126.022C743.641 125.565 746.411 125.561 749.113 125.955L749.094 125.949Z" fill="#49B96B"/>
<path d="M959.163 184.05C965.771 185.003 971.806 188.4 976.157 193.747L1005.9 230.354C1010.66 236.207 1016.89 240.681 1023.98 243.306L1033.7 246.912L1021.87 278.785L1012.14 275.179C999.378 270.441 988.118 262.371 979.529 251.792L960.392 228.239C958.776 226.251 955.626 226.65 954.546 228.975L932.171 277.504C924.015 295.175 911.13 310.142 894.852 320.818L879.39 330.95L860.749 302.516L876.21 292.384C887.124 285.221 895.827 275.136 901.292 263.28L930.399 200.122C934.248 191.775 941.837 185.567 950.919 184.122C953.71 183.666 956.48 183.662 959.182 184.055L959.163 184.05Z" fill="#49B96B"/>
<path d="M1189.6 247.783C1196.21 248.736 1202.24 252.134 1206.59 257.48L1236.34 294.087C1241.09 299.941 1247.33 304.414 1254.41 307.039L1264.14 310.645L1252.3 342.518L1242.58 338.912C1229.81 334.174 1218.55 326.104 1209.97 315.526L1190.83 291.972C1189.21 289.985 1186.06 290.384 1184.98 292.708L1162.61 341.238C1154.45 358.908 1141.57 373.875 1125.29 384.552L1109.83 394.684L1091.19 366.25L1106.65 356.118C1117.56 348.955 1126.26 338.869 1131.73 327.013L1160.83 263.855C1164.68 255.509 1172.27 249.3 1181.35 247.856C1184.15 247.399 1186.92 247.395 1189.62 247.789L1189.6 247.783Z" fill="#49B96B"/>
<path d="M1409.18 308.516C1415.79 309.469 1421.83 312.866 1426.18 318.213L1455.93 354.82C1460.68 360.673 1466.92 365.147 1474 367.772L1483.72 371.378L1471.89 403.251L1462.16 399.645C1449.4 394.907 1438.14 386.837 1429.55 376.258L1410.41 352.705C1408.8 350.717 1405.65 351.116 1404.57 353.441L1382.19 401.97C1374.04 419.64 1361.15 434.608 1344.87 445.284L1329.41 455.416L1310.77 426.982L1326.23 416.85C1337.15 409.687 1345.85 399.601 1351.31 387.746L1380.42 324.588C1384.27 316.241 1391.86 310.032 1400.94 308.588C1403.73 308.132 1406.5 308.128 1409.2 308.521L1409.18 308.516Z" fill="#49B96B"/>
<path d="M255.158 476.221C248.736 474.445 243.152 470.319 239.5 464.478L214.575 424.437C210.581 418.023 204.966 412.806 198.265 409.328L189.056 404.533L204.781 374.402L213.99 379.198C226.073 385.496 236.229 394.926 243.425 406.473L259.469 432.252C260.822 434.438 264.005 434.444 265.36 432.258L293.625 386.898C303.919 370.381 318.596 357.138 336.053 348.599L352.648 340.467L367.586 371L350.991 379.132C339.26 384.882 329.384 393.79 322.468 404.869L285.699 463.889C280.836 471.684 272.522 476.901 263.342 477.194C260.526 477.289 257.763 476.963 255.133 476.235L255.158 476.221Z" fill="#49B96B"/>
<path d="M485.594 539.955C479.172 538.179 473.588 534.052 469.936 528.212L445.011 488.171C441.017 481.757 435.402 476.539 428.701 473.062L419.492 468.266L435.217 438.135L444.426 442.931C456.509 449.23 466.665 458.66 473.861 470.207L489.905 495.986C491.258 498.171 494.442 498.178 495.796 495.991L524.061 450.631C534.355 434.115 549.032 420.872 566.489 412.333L583.084 404.201L598.022 434.733L581.427 442.865C569.696 448.616 559.82 457.523 552.904 468.603L516.135 527.622C511.272 535.417 502.958 540.634 493.778 540.927C490.962 541.023 488.199 540.696 485.569 539.969L485.594 539.955Z" fill="#49B96B"/>
<path d="M695.663 598.054C689.242 596.278 683.658 592.152 680.005 586.311L655.08 546.27C651.086 539.856 645.471 534.639 638.771 531.161L629.561 526.366L645.286 496.235L654.495 501.031C666.579 507.329 676.734 516.759 683.93 528.306L699.974 554.085C701.327 556.271 704.511 556.277 705.865 554.091L734.13 508.731C744.424 492.214 759.101 478.971 776.558 470.432L793.153 462.3L808.091 492.833L791.496 500.965C779.766 506.715 769.89 515.623 762.974 526.702L726.204 585.722C721.341 593.517 713.027 598.734 703.847 599.027C701.031 599.122 698.269 598.796 695.638 598.068L695.663 598.054Z" fill="#49B96B"/>
<path d="M30.1565 413.991C23.735 412.215 18.151 408.088 14.4987 402.248L-10.4267 362.207C-14.4202 355.793 -20.0355 350.575 -26.736 347.098L-35.9451 342.302L-20.2202 312.172L-11.0111 316.967C1.07216 323.266 11.2274 332.696 18.4235 344.243L34.4676 370.022C35.8203 372.208 39.0042 372.214 40.3585 370.027L68.6239 324.668C78.9178 308.151 93.5949 294.908 111.052 286.369L127.647 278.237L142.584 308.77L125.989 316.902C114.259 322.652 104.383 331.559 97.467 342.639L60.6973 401.658C55.8345 409.454 47.5206 414.671 38.3408 414.963C35.5244 415.059 32.7622 414.732 30.1318 414.005L30.1565 413.991Z" fill="#49B96B"/>
<path d="M230.453 228.508C237.06 229.461 243.096 232.858 247.447 238.205L277.195 274.812C281.947 280.665 288.185 285.139 295.267 287.764L304.992 291.37L293.158 323.243L283.432 319.637C270.668 314.899 259.407 306.829 250.819 296.25L231.682 272.697C230.066 270.709 226.916 271.108 225.836 273.433L203.46 321.963C195.304 339.633 182.42 354.6 166.142 365.276L150.68 375.408L132.039 346.974L147.5 336.842C158.414 329.679 167.116 319.594 172.582 307.738L201.689 244.58C205.538 236.233 213.127 230.025 222.208 228.58C225 228.124 227.77 228.12 230.472 228.513L230.453 228.508Z" fill="#49B96B"/>
<path d="M0.0166444 164.775C6.62406 165.728 12.6595 169.126 17.0106 174.473L46.7585 211.079C51.5109 216.933 57.7484 221.406 64.8303 224.031L74.5559 227.637L62.7215 259.51L52.996 255.904C40.2313 251.166 28.9711 243.097 20.3828 232.518L1.24543 208.965C-0.370249 206.977 -3.52044 207.376 -4.60065 209.701L-26.9759 258.23C-35.1319 275.9 -48.0164 290.867 -64.2948 301.544L-79.7563 311.676L-98.3975 283.242L-82.936 273.11C-72.0225 265.947 -63.3199 255.861 -57.8547 244.006L-28.7476 180.848C-24.8984 172.501 -17.3096 166.292 -8.22779 164.848C-5.43644 164.392 -2.66607 164.387 0.0359874 164.781L0.0166444 164.775Z" fill="#49B96B"/>
<path d="M455.454 290.738C462.061 291.691 468.097 295.089 472.448 300.436L502.196 337.042C506.948 342.896 513.185 347.369 520.267 349.994L529.993 353.6L518.159 385.473L508.433 381.867C495.668 377.129 484.408 369.06 475.82 358.481L456.682 334.928C455.067 332.94 451.917 333.339 450.836 335.663L428.461 384.193C420.305 401.863 407.421 416.83 391.142 427.507L375.681 437.639L357.039 409.205L372.501 399.073C383.414 391.91 392.117 381.824 397.582 369.968L426.689 306.81C430.539 298.464 438.127 292.255 447.209 290.811C450.001 290.354 452.771 290.35 455.473 290.744L455.454 290.738Z" fill="#49B96B"/>
<path d="M685.89 354.471C692.497 355.424 698.533 358.821 702.884 364.168L732.632 400.775C737.384 406.628 743.622 411.102 750.704 413.727L760.429 417.333L748.595 449.206L738.869 445.6C726.105 440.862 714.844 432.792 706.256 422.213L687.119 398.66C685.503 396.672 682.353 397.071 681.273 399.396L658.897 447.925C650.741 465.596 637.857 480.563 621.579 491.239L606.117 501.371L587.476 472.937L602.937 462.805C613.851 455.642 622.553 445.556 628.019 433.701L657.126 370.543C660.975 362.196 668.564 355.988 677.646 354.543C680.437 354.087 683.207 354.083 685.909 354.476L685.89 354.471Z" fill="#49B96B"/>
<path d="M895.96 412.571C902.567 413.524 908.602 416.922 912.954 422.269L942.701 458.875C947.454 464.729 953.691 469.202 960.773 471.827L970.499 475.433L958.664 507.306L948.939 503.7C936.174 498.962 924.914 490.893 916.326 480.314L897.188 456.761C895.573 454.773 892.422 455.172 891.342 457.496L868.967 506.026C860.811 523.696 847.926 538.663 831.648 549.34L816.187 559.472L797.545 531.038L813.007 520.906C823.92 513.743 832.623 503.657 838.088 491.801L867.195 428.643C871.044 420.297 878.633 414.088 887.715 412.644C890.506 412.187 893.277 412.183 895.979 412.577L895.96 412.571Z" fill="#49B96B"/>
<path d="M167.254 457.01C173.862 457.963 179.897 461.36 184.248 466.707L213.996 503.314C218.749 509.167 224.986 513.641 232.068 516.266L241.794 519.872L229.959 551.745L220.234 548.139C207.469 543.401 196.209 535.331 187.621 524.752L168.483 501.199C166.868 499.211 163.717 499.61 162.637 501.935L140.262 550.464C132.106 568.134 119.221 583.102 102.943 593.778L87.4815 603.91L68.8403 575.476L84.3018 565.344C95.2153 558.181 103.918 548.096 109.383 536.24L138.49 473.082C142.339 464.735 149.928 458.527 159.01 457.082C161.801 456.626 164.572 456.622 167.274 457.015L167.254 457.01Z" fill="#49B96B"/>
<path d="M-63.1818 393.277C-56.5744 394.23 -50.539 397.628 -46.1879 402.975L-16.4399 439.581C-11.6876 445.435 -5.45007 449.908 1.63187 452.533L11.3574 456.139L-0.476944 488.012L-10.2025 484.406C-22.9672 479.668 -34.2274 471.599 -42.8156 461.02L-61.9531 437.467C-63.5687 435.479 -66.7189 435.878 -67.7991 438.202L-90.1743 486.732C-98.3304 504.402 -111.215 519.369 -127.493 530.046L-142.955 540.178L-161.596 511.744L-146.134 501.612C-135.221 494.449 -126.518 484.363 -121.053 472.507L-91.9461 409.349C-88.0969 401.003 -80.5081 394.794 -71.4263 393.35C-68.6349 392.894 -65.8646 392.889 -63.1625 393.283L-63.1818 393.277Z" fill="#49B96B"/>
</g>
</g>
<defs>
<clipPath id="clip0_1062_9469">
<path d="M0 32.0293C0 14.3562 14.3269 0.0292969 32 0.0292969H1481C1498.67 0.0292969 1513 14.3562 1513 32.0293V444.029H0V32.0293Z" fill="white"/>
</clipPath>
<clipPath id="clip1_1062_9469">
<rect width="1629.94" height="1654.91" fill="white" transform="translate(191.89 -766.332) rotate(15.4602)"/>
</clipPath>
</defs>
</svg>
