<svg width="19" height="19" viewBox="0 0 19 19" fill="none" xmlns="http://www.w3.org/2000/svg">
<path d="M6.5 12.4492V6.44922H12.5V12.4492H6.5ZM8.5 10.4492H10.5V8.44922H8.5V10.4492ZM6.5 18.4492V16.4492H4.5C3.95 16.4492 3.47917 16.2534 3.0875 15.8617C2.69583 15.4701 2.5 14.9992 2.5 14.4492V12.4492H0.5V10.4492H2.5V8.44922H0.5V6.44922H2.5V4.44922C2.5 3.89922 2.69583 3.42839 3.0875 3.03672C3.47917 2.64505 3.95 2.44922 4.5 2.44922H6.5V0.449219H8.5V2.44922H10.5V0.449219H12.5V2.44922H14.5C15.05 2.44922 15.5208 2.64505 15.9125 3.03672C16.3042 3.42839 16.5 3.89922 16.5 4.44922V6.44922H18.5V8.44922H16.5V10.4492H18.5V12.4492H16.5V14.4492C16.5 14.9992 16.3042 15.4701 15.9125 15.8617C15.5208 16.2534 15.05 16.4492 14.5 16.4492H12.5V18.4492H10.5V16.4492H8.5V18.4492H6.5ZM14.5 14.4492V4.44922H4.5V14.4492H14.5Z" fill="url(#paint0_linear_981_7136)"/>
<defs>
<linearGradient id="paint0_linear_981_7136" x1="9.5" y1="0.449219" x2="9.5" y2="18.4492" gradientUnits="userSpaceOnUse">
<stop stop-color="#48B96B"/>
<stop offset="1" stop-color="#B2FAC8"/>
</linearGradient>
</defs>
</svg>
