<svg width="48" height="48" viewBox="0 0 48 48" fill="none" xmlns="http://www.w3.org/2000/svg">
<mask id="mask0_773_9647" style="mask-type:alpha" maskUnits="userSpaceOnUse" x="0" y="0" width="48" height="48">
<rect width="48" height="48" fill="#D9D9D9"/>
</mask>
<g mask="url(#mask0_773_9647)">
<path d="M24 42.7L21.1 40.1C17.7333 37.0667 14.95 34.45 12.75 32.25C10.55 30.05 8.8 28.075 7.5 26.325C6.2 24.575 5.29167 22.9667 4.775 21.5C4.25833 20.0333 4 18.5333 4 17C4 13.8667 5.05 11.25 7.15 9.15C9.25 7.05 11.8667 6 15 6C16.7333 6 18.3833 6.36667 19.95 7.1C21.5167 7.83333 22.8667 8.86667 24 10.2C25.1333 8.86667 26.4833 7.83333 28.05 7.1C29.6167 6.36667 31.2667 6 33 6C36.1333 6 38.75 7.05 40.85 9.15C42.95 11.25 44 13.8667 44 17C44 18.5333 43.7417 20.0333 43.225 21.5C42.7083 22.9667 41.8 24.575 40.5 26.325C39.2 28.075 37.45 30.05 35.25 32.25C33.05 34.45 30.2667 37.0667 26.9 40.1L24 42.7ZM24 37.3C27.2 34.4333 29.8333 31.975 31.9 29.925C33.9667 27.875 35.6 26.0917 36.8 24.575C38 23.0583 38.8333 21.7083 39.3 20.525C39.7667 19.3417 40 18.1667 40 17C40 15 39.3333 13.3333 38 12C36.6667 10.6667 35 10 33 10C31.4333 10 29.9833 10.4417 28.65 11.325C27.3167 12.2083 26.4 13.3333 25.9 14.7H22.1C21.6 13.3333 20.6833 12.2083 19.35 11.325C18.0167 10.4417 16.5667 10 15 10C13 10 11.3333 10.6667 10 12C8.66667 13.3333 8 15 8 17C8 18.1667 8.23333 19.3417 8.7 20.525C9.16667 21.7083 10 23.0583 11.2 24.575C12.4 26.0917 14.0333 27.875 16.1 29.925C18.1667 31.975 20.8 34.4333 24 37.3Z" fill="url(#paint0_linear_773_9647)"/>
</g>
<defs>
<linearGradient id="paint0_linear_773_9647" x1="24" y1="6" x2="24" y2="42.7" gradientUnits="userSpaceOnUse">
<stop stop-color="#48B96B"/>
<stop offset="1" stop-color="#B2FAC8"/>
</linearGradient>
</defs>
</svg>
