<svg width="49" height="48" viewBox="0 0 49 48" fill="none" xmlns="http://www.w3.org/2000/svg">
<mask id="mask0_773_9604" style="mask-type:alpha" maskUnits="userSpaceOnUse" x="0" y="0" width="49" height="48">
<rect x="0.5" width="48" height="48" fill="#D9D9D9"/>
</mask>
<g mask="url(#mask0_773_9604)">
<path d="M24.5 44C21.7667 44 19.1833 43.475 16.75 42.425C14.3167 41.375 12.1917 39.9417 10.375 38.125C8.55833 36.3083 7.125 34.1833 6.075 31.75C5.025 29.3167 4.5 26.7333 4.5 24C4.5 21.2333 5.025 18.6417 6.075 16.225C7.125 13.8083 8.55833 11.6917 10.375 9.875C12.1917 8.05833 14.3167 6.625 16.75 5.575C19.1833 4.525 21.7667 4 24.5 4C27.2667 4 29.8583 4.525 32.275 5.575C34.6917 6.625 36.8083 8.05833 38.625 9.875C40.4417 11.6917 41.875 13.8083 42.925 16.225C43.975 18.6417 44.5 21.2333 44.5 24C44.5 26.7333 43.975 29.3167 42.925 31.75C41.875 34.1833 40.4417 36.3083 38.625 38.125C36.8083 39.9417 34.6917 41.375 32.275 42.425C29.8583 43.475 27.2667 44 24.5 44ZM24.5 39.9C25.3667 38.7 26.1167 37.45 26.75 36.15C27.3833 34.85 27.9 33.4667 28.3 32H20.7C21.1 33.4667 21.6167 34.85 22.25 36.15C22.8833 37.45 23.6333 38.7 24.5 39.9ZM19.3 39.1C18.7 38 18.175 36.8583 17.725 35.675C17.275 34.4917 16.9 33.2667 16.6 32H10.7C11.6667 33.6667 12.875 35.1167 14.325 36.35C15.775 37.5833 17.4333 38.5 19.3 39.1ZM29.7 39.1C31.5667 38.5 33.225 37.5833 34.675 36.35C36.125 35.1167 37.3333 33.6667 38.3 32H32.4C32.1 33.2667 31.725 34.4917 31.275 35.675C30.825 36.8583 30.3 38 29.7 39.1ZM9 28H15.8C15.7 27.3333 15.625 26.675 15.575 26.025C15.525 25.375 15.5 24.7 15.5 24C15.5 23.3 15.525 22.625 15.575 21.975C15.625 21.325 15.7 20.6667 15.8 20H9C8.83333 20.6667 8.70833 21.325 8.625 21.975C8.54167 22.625 8.5 23.3 8.5 24C8.5 24.7 8.54167 25.375 8.625 26.025C8.70833 26.675 8.83333 27.3333 9 28ZM19.8 28H29.2C29.3 27.3333 29.375 26.675 29.425 26.025C29.475 25.375 29.5 24.7 29.5 24C29.5 23.3 29.475 22.625 29.425 21.975C29.375 21.325 29.3 20.6667 29.2 20H19.8C19.7 20.6667 19.625 21.325 19.575 21.975C19.525 22.625 19.5 23.3 19.5 24C19.5 24.7 19.525 25.375 19.575 26.025C19.625 26.675 19.7 27.3333 19.8 28ZM33.2 28H40C40.1667 27.3333 40.2917 26.675 40.375 26.025C40.4583 25.375 40.5 24.7 40.5 24C40.5 23.3 40.4583 22.625 40.375 21.975C40.2917 21.325 40.1667 20.6667 40 20H33.2C33.3 20.6667 33.375 21.325 33.425 21.975C33.475 22.625 33.5 23.3 33.5 24C33.5 24.7 33.475 25.375 33.425 26.025C33.375 26.675 33.3 27.3333 33.2 28ZM32.4 16H38.3C37.3333 14.3333 36.125 12.8833 34.675 11.65C33.225 10.4167 31.5667 9.5 29.7 8.9C30.3 10 30.825 11.1417 31.275 12.325C31.725 13.5083 32.1 14.7333 32.4 16ZM20.7 16H28.3C27.9 14.5333 27.3833 13.15 26.75 11.85C26.1167 10.55 25.3667 9.3 24.5 8.1C23.6333 9.3 22.8833 10.55 22.25 11.85C21.6167 13.15 21.1 14.5333 20.7 16ZM10.7 16H16.6C16.9 14.7333 17.275 13.5083 17.725 12.325C18.175 11.1417 18.7 10 19.3 8.9C17.4333 9.5 15.775 10.4167 14.325 11.65C12.875 12.8833 11.6667 14.3333 10.7 16Z" fill="url(#paint0_linear_773_9604)"/>
</g>
<defs>
<linearGradient id="paint0_linear_773_9604" x1="24.5" y1="4" x2="24.5" y2="44" gradientUnits="userSpaceOnUse">
<stop stop-color="#48B96B"/>
<stop offset="1" stop-color="#B2FAC8"/>
</linearGradient>
</defs>
</svg>
