<svg width="12" height="13" viewBox="0 0 12 13" fill="none" xmlns="http://www.w3.org/2000/svg">
<mask id="mask0_742_10146" style="mask-type:alpha" maskUnits="userSpaceOnUse" x="0" y="0" width="12" height="13">
<rect y="0.732422" width="12" height="12" fill="#D9D9D9"/>
</mask>
<g mask="url(#mask0_742_10146)">
<path d="M2.50195 11.7324C2.22695 11.7324 1.99154 11.6345 1.7957 11.4387C1.59987 11.2428 1.50195 11.0074 1.50195 10.7324V3.73242C1.50195 3.45742 1.59987 3.22201 1.7957 3.02617C1.99154 2.83034 2.22695 2.73242 2.50195 2.73242H3.00195V1.73242H4.00195V2.73242H8.00195V1.73242H9.00195V2.73242H9.50195C9.77695 2.73242 10.0124 2.83034 10.2082 3.02617C10.404 3.22201 10.502 3.45742 10.502 3.73242V10.7324C10.502 11.0074 10.404 11.2428 10.2082 11.4387C10.0124 11.6345 9.77695 11.7324 9.50195 11.7324H2.50195ZM2.50195 10.7324H9.50195V5.73242H2.50195V10.7324ZM2.50195 4.73242H9.50195V3.73242H2.50195V4.73242Z" fill="#EAF5F4" fill-opacity="0.65"/>
</g>
</svg>
