<svg width="136" height="25" viewBox="0 0 136 25" fill="none" xmlns="http://www.w3.org/2000/svg">
<g filter="url(#filter0_ii_753_5632)">
<path d="M0 0.0595703H136L124.07 11.4596L136 24.0596H0V0.0595703Z" fill="#CCDC35"/>
</g>
<path d="M22.1644 10.0874L10.6644 6.08736C10.589 6.06112 10.5084 6.05331 10.4294 6.06458C10.3504 6.07584 10.2753 6.10585 10.2102 6.15211C10.1452 6.19836 10.0922 6.25952 10.0556 6.33045C10.019 6.40139 9.99995 6.48005 10 6.55986V17.5599C10 17.6925 10.0527 17.8196 10.1464 17.9134C10.2402 18.0072 10.3674 18.0599 10.5 18.0599C10.6326 18.0599 10.7598 18.0072 10.8536 17.9134C10.9473 17.8196 11 17.6925 11 17.5599V14.9155L22.1644 11.0324C22.2626 10.9984 22.3478 10.9346 22.4081 10.8499C22.4684 10.7652 22.5008 10.6638 22.5008 10.5599C22.5008 10.4559 22.4684 10.3545 22.4081 10.2698C22.3478 10.1851 22.2626 10.1214 22.1644 10.0874ZM11 13.8567V7.26299L20.4781 10.5599L11 13.8567Z" fill="#152B2F"/>
<path d="M27.9588 16.0596V7.3323H33.3707V8.46582H29.2756V11.1249H32.983V12.2542H29.2756V16.0596H27.9588ZM36.2099 7.3323V16.0596H34.9358V7.3323H36.2099ZM39.8769 16.2045C39.4621 16.2045 39.0871 16.1278 38.7519 15.9743C38.4167 15.8181 38.151 15.5922 37.955 15.2968C37.7618 15.0013 37.6652 14.6391 37.6652 14.2101C37.6652 13.8408 37.7363 13.5368 37.8783 13.2982C38.0204 13.0596 38.2121 12.8706 38.4536 12.7314C38.6951 12.5922 38.965 12.4871 39.2633 12.4161C39.5616 12.3451 39.8655 12.2911 40.1752 12.2542C40.5672 12.2087 40.8854 12.1718 41.1297 12.1434C41.3741 12.1121 41.5516 12.0624 41.6624 11.9942C41.7732 11.926 41.8286 11.8153 41.8286 11.6618V11.632C41.8286 11.2599 41.7235 10.9715 41.5133 10.767C41.3059 10.5624 40.9962 10.4601 40.5843 10.4601C40.1553 10.4601 39.8172 10.5553 39.5701 10.7456C39.3258 10.9331 39.1567 11.142 39.063 11.3721L37.8655 11.0993C38.0076 10.7016 38.215 10.3806 38.4877 10.1363C38.7633 9.88912 39.08 9.71014 39.438 9.59934C39.7959 9.48571 40.1723 9.42889 40.5672 9.42889C40.8286 9.42889 41.1056 9.46014 41.3982 9.52264C41.6937 9.5823 41.9692 9.69309 42.2249 9.85502C42.4834 10.017 42.6951 10.2485 42.8598 10.5496C43.0246 10.8479 43.107 11.2357 43.107 11.713V16.0596H41.8627V15.1647H41.8116C41.7292 15.3295 41.6056 15.4914 41.4408 15.6505C41.276 15.8096 41.0644 15.9417 40.8059 16.0468C40.5473 16.1519 40.2377 16.2045 39.8769 16.2045ZM40.1539 15.1817C40.5062 15.1817 40.8073 15.1121 41.0573 14.9729C41.3101 14.8337 41.5019 14.6519 41.6326 14.4275C41.7661 14.2002 41.8329 13.9573 41.8329 13.6988V12.855C41.7874 12.9005 41.6993 12.9431 41.5687 12.9829C41.4408 13.0198 41.2945 13.0525 41.1297 13.0809C40.965 13.1064 40.8045 13.1306 40.6482 13.1533C40.492 13.1732 40.3613 13.1903 40.2562 13.2045C40.009 13.2357 39.7831 13.2883 39.5786 13.3621C39.3769 13.436 39.215 13.5425 39.0928 13.6817C38.9735 13.8181 38.9138 13.9999 38.9138 14.2272C38.9138 14.5425 39.0303 14.7812 39.2633 14.9431C39.4962 15.1022 39.7931 15.1817 40.1539 15.1817ZM47.5964 18.6505C47.0765 18.6505 46.6291 18.5823 46.2541 18.4459C45.8819 18.3096 45.5779 18.1292 45.3422 17.9047C45.1064 17.6803 44.9302 17.4346 44.8137 17.1675L45.9089 16.7158C45.9856 16.8408 46.0879 16.9729 46.2157 17.1121C46.3464 17.2542 46.5226 17.3749 46.7441 17.4743C46.9686 17.5738 47.2569 17.6235 47.6092 17.6235C48.0922 17.6235 48.4913 17.5056 48.8066 17.2698C49.122 17.0368 49.2797 16.6647 49.2797 16.1533V14.8664H49.1987C49.122 15.0056 49.0112 15.1604 48.8663 15.3309C48.7243 15.5013 48.5282 15.6491 48.2782 15.7741C48.0282 15.8991 47.7029 15.9616 47.3024 15.9616C46.7853 15.9616 46.3194 15.8408 45.9047 15.5993C45.4927 15.355 45.166 14.9956 44.9245 14.5212C44.6859 14.0439 44.5666 13.4573 44.5666 12.7613C44.5666 12.0653 44.6845 11.4687 44.9203 10.9715C45.1589 10.4743 45.4856 10.0937 45.9004 9.82946C46.3152 9.56241 46.7853 9.42889 47.3109 9.42889C47.7172 9.42889 48.0453 9.49707 48.2953 9.63343C48.5453 9.76696 48.7399 9.92321 48.8791 10.1022C49.0211 10.2812 49.1305 10.4388 49.2072 10.5752H49.301V9.51412H50.5495V16.2045C50.5495 16.767 50.4189 17.2286 50.1575 17.5894C49.8961 17.9502 49.5424 18.2172 49.0964 18.3905C48.6532 18.5638 48.1532 18.6505 47.5964 18.6505ZM47.5836 14.9047C47.9501 14.9047 48.2598 14.8195 48.5126 14.6491C48.7683 14.4758 48.9615 14.2286 49.0922 13.9076C49.2257 13.5837 49.2924 13.1959 49.2924 12.7442C49.2924 12.3039 49.2271 11.9161 49.0964 11.5809C48.9657 11.2456 48.774 10.9843 48.5211 10.7968C48.2683 10.6064 47.9558 10.5113 47.5836 10.5113C47.2001 10.5113 46.8805 10.6107 46.6248 10.8096C46.3691 11.0056 46.176 11.2726 46.0453 11.6107C45.9174 11.9488 45.8535 12.3266 45.8535 12.7442C45.8535 13.1732 45.9189 13.5496 46.0495 13.8735C46.1802 14.1974 46.3734 14.4502 46.6291 14.632C46.8876 14.8138 47.2058 14.9047 47.5836 14.9047ZM57.2112 11.1121L56.0563 11.3167C56.0081 11.1689 55.9313 11.0283 55.8262 10.8948C55.724 10.7613 55.5848 10.6519 55.4086 10.5667C55.2325 10.4814 55.0123 10.4388 54.7481 10.4388C54.3873 10.4388 54.0862 10.5198 53.8447 10.6817C53.6032 10.8408 53.4825 11.0468 53.4825 11.2996C53.4825 11.5184 53.5634 11.6945 53.7254 11.828C53.8873 11.9616 54.1487 12.0709 54.5095 12.1562L55.5492 12.3948C56.1515 12.534 56.6004 12.7485 56.8958 13.0383C57.1913 13.328 57.339 13.7045 57.339 14.1675C57.339 14.5596 57.2254 14.909 56.9981 15.2158C56.7737 15.5198 56.4598 15.7584 56.0563 15.9317C55.6558 16.105 55.1913 16.1917 54.6629 16.1917C53.9299 16.1917 53.3319 16.0354 52.8688 15.7229C52.4058 15.4076 52.1217 14.9601 52.0166 14.3806L53.2481 14.1931C53.3248 14.5141 53.4825 14.757 53.7211 14.9218C53.9598 15.0837 54.2708 15.1647 54.6544 15.1647C55.072 15.1647 55.4058 15.078 55.6558 14.9047C55.9058 14.7286 56.0308 14.5141 56.0308 14.2613C56.0308 14.0567 55.9541 13.8849 55.8007 13.7456C55.6501 13.6064 55.4186 13.5013 55.1061 13.4303L53.9981 13.1874C53.3873 13.0482 52.9356 12.8266 52.643 12.5226C52.3532 12.2187 52.2083 11.8337 52.2083 11.3678C52.2083 10.9814 52.3163 10.6434 52.5322 10.3536C52.7481 10.0638 53.0464 9.83798 53.4271 9.67605C53.8078 9.51127 54.2438 9.42889 54.7353 9.42889C55.4427 9.42889 55.9995 9.5823 56.4058 9.88912C56.812 10.1931 57.0805 10.6008 57.2112 11.1121ZM60.0621 12.1732V16.0596H58.7879V7.3323H60.045V10.5795H60.126C60.2794 10.2272 60.5138 9.94735 60.8291 9.73997C61.1445 9.53258 61.5564 9.42889 62.0649 9.42889C62.5138 9.42889 62.9058 9.52122 63.2411 9.70588C63.5791 9.89054 63.8405 10.1661 64.0252 10.5326C64.2127 10.8962 64.3064 11.3508 64.3064 11.8962V16.0596H63.0323V12.0496C63.0323 11.5695 62.9087 11.1974 62.6615 10.9331C62.4144 10.6661 62.0706 10.5326 61.6303 10.5326C61.3291 10.5326 61.0592 10.5965 60.8206 10.7243C60.5848 10.8522 60.3987 11.0397 60.2624 11.2868C60.1288 11.5312 60.0621 11.8266 60.0621 12.1732ZM66.0547 16.0596V9.51412H67.3288V16.0596H66.0547ZM66.6982 8.50417C66.4766 8.50417 66.2862 8.43031 66.1271 8.28258C65.9709 8.13201 65.8928 7.95304 65.8928 7.74565C65.8928 7.53542 65.9709 7.35645 66.1271 7.20872C66.2862 7.05815 66.4766 6.98287 66.6982 6.98287C66.9197 6.98287 67.1087 7.05815 67.2649 7.20872C67.424 7.35645 67.5036 7.53542 67.5036 7.74565C67.5036 7.95304 67.424 8.13201 67.2649 8.28258C67.1087 8.43031 66.9197 8.50417 66.6982 8.50417ZM69.091 18.5141V9.51412H70.3353V10.5752H70.4418C70.5157 10.4388 70.6222 10.2812 70.7614 10.1022C70.9006 9.92321 71.0938 9.76696 71.341 9.63343C71.5881 9.49707 71.9148 9.42889 72.3211 9.42889C72.8495 9.42889 73.3211 9.56241 73.7359 9.82946C74.1506 10.0965 74.4759 10.4814 74.7117 10.9843C74.9503 11.4871 75.0697 12.0922 75.0697 12.7996C75.0697 13.507 74.9518 14.1135 74.716 14.6192C74.4802 15.1221 74.1563 15.5099 73.7444 15.7826C73.3324 16.0525 72.8623 16.1874 72.3339 16.1874C71.9361 16.1874 71.6109 16.1206 71.358 15.9871C71.108 15.8536 70.912 15.6974 70.7699 15.5184C70.6279 15.3394 70.5185 15.1803 70.4418 15.0411H70.3651V18.5141H69.091ZM70.3395 12.7868C70.3395 13.2471 70.4063 13.6505 70.5398 13.9971C70.6734 14.3437 70.8665 14.615 71.1194 14.811C71.3722 15.0042 71.6819 15.1008 72.0484 15.1008C72.429 15.1008 72.7472 14.9999 73.0029 14.7982C73.2586 14.5937 73.4518 14.3167 73.5824 13.9672C73.716 13.6178 73.7827 13.2243 73.7827 12.7868C73.7827 12.355 73.7174 11.9672 73.5867 11.6235C73.4589 11.2797 73.2657 11.0084 73.0072 10.8096C72.7515 10.6107 72.4319 10.5113 72.0484 10.5113C71.679 10.5113 71.3665 10.6064 71.1109 10.7968C70.858 10.9871 70.6663 11.2528 70.5356 11.5937C70.4049 11.9346 70.3395 12.3323 70.3395 12.7868ZM82.5261 16.1917C81.8926 16.1917 81.3471 16.0482 80.8897 15.7613C80.4352 15.4715 80.0858 15.0724 79.8414 14.5638C79.5971 14.0553 79.475 13.4729 79.475 12.8167C79.475 12.1519 79.6 11.5653 79.85 11.0567C80.1 10.5454 80.4522 10.1462 80.9068 9.85929C81.3613 9.57235 81.8968 9.42889 82.5133 9.42889C83.0105 9.42889 83.4537 9.52122 83.8429 9.70588C84.2321 9.8877 84.546 10.1434 84.7846 10.4729C85.0261 10.8025 85.1696 11.1874 85.215 11.6278H83.975C83.9068 11.3209 83.7505 11.0567 83.5062 10.8351C83.2647 10.6135 82.9409 10.5028 82.5346 10.5028C82.1795 10.5028 81.8684 10.5965 81.6014 10.784C81.3372 10.9687 81.1312 11.2329 80.9835 11.5766C80.8358 11.9175 80.7619 12.3209 80.7619 12.7868C80.7619 13.2641 80.8343 13.676 80.9792 14.0226C81.1241 14.3692 81.3287 14.6377 81.5929 14.828C81.8599 15.0184 82.1738 15.1135 82.5346 15.1135C82.7761 15.1135 82.9949 15.0695 83.1909 14.9814C83.3897 14.8905 83.5559 14.7613 83.6895 14.5937C83.8258 14.426 83.921 14.2243 83.975 13.9885H85.215C85.1696 14.4118 85.0318 14.7897 84.8017 15.1221C84.5716 15.4545 84.2633 15.7158 83.877 15.9062C83.4934 16.0965 83.0431 16.1917 82.5261 16.1917ZM89.3827 16.1917C88.7691 16.1917 88.2336 16.051 87.7762 15.7698C87.3188 15.4885 86.9637 15.0951 86.7108 14.5894C86.458 14.0837 86.3316 13.4928 86.3316 12.8167C86.3316 12.1377 86.458 11.5439 86.7108 11.0354C86.9637 10.5269 87.3188 10.132 87.7762 9.85076C88.2336 9.56951 88.7691 9.42889 89.3827 9.42889C89.9963 9.42889 90.5318 9.56951 90.9892 9.85076C91.4466 10.132 91.8017 10.5269 92.0546 11.0354C92.3074 11.5439 92.4338 12.1377 92.4338 12.8167C92.4338 13.4928 92.3074 14.0837 92.0546 14.5894C91.8017 15.0951 91.4466 15.4885 90.9892 15.7698C90.5318 16.051 89.9963 16.1917 89.3827 16.1917ZM89.387 15.1221C89.7847 15.1221 90.1142 15.017 90.3756 14.8067C90.637 14.5965 90.8301 14.3167 90.9551 13.9672C91.083 13.6178 91.1469 13.2329 91.1469 12.8124C91.1469 12.3948 91.083 12.0113 90.9551 11.6618C90.8301 11.3096 90.637 11.0269 90.3756 10.8138C90.1142 10.6008 89.7847 10.4942 89.387 10.4942C88.9864 10.4942 88.654 10.6008 88.3898 10.8138C88.1284 11.0269 87.9338 11.3096 87.806 11.6618C87.681 12.0113 87.6185 12.3948 87.6185 12.8124C87.6185 13.2329 87.681 13.6178 87.806 13.9672C87.9338 14.3167 88.1284 14.5965 88.3898 14.8067C88.654 15.017 88.9864 15.1221 89.387 15.1221ZM98.0504 13.3451V9.51412H99.3288V16.0596H98.0759V14.926H98.0078C97.8572 15.2755 97.6157 15.5667 97.2833 15.7996C96.9538 16.0297 96.5433 16.1448 96.0518 16.1448C95.6313 16.1448 95.2592 16.0525 94.9353 15.8678C94.6143 15.6803 94.3615 15.4033 94.1768 15.0368C93.995 14.6704 93.9041 14.2172 93.9041 13.6775V9.51412H95.1782V13.5241C95.1782 13.9701 95.3018 14.3252 95.549 14.5894C95.7961 14.8536 96.1171 14.9857 96.512 14.9857C96.7507 14.9857 96.9879 14.926 97.2237 14.8067C97.4623 14.6874 97.6597 14.507 97.816 14.2655C97.9751 14.0241 98.0532 13.7172 98.0504 13.3451ZM101.089 16.0596V9.51412H102.32V10.5539H102.388C102.508 10.2016 102.718 9.92463 103.019 9.72292C103.323 9.51838 103.667 9.4161 104.05 9.4161C104.13 9.4161 104.224 9.41895 104.332 9.42463C104.442 9.43031 104.529 9.43741 104.592 9.44593V10.6647C104.54 10.6505 104.45 10.6349 104.319 10.6178C104.188 10.5979 104.058 10.588 103.927 10.588C103.626 10.588 103.357 10.6519 103.121 10.7797C102.888 10.9047 102.704 11.0795 102.567 11.3039C102.431 11.5255 102.363 11.7783 102.363 12.0624V16.0596H101.089ZM110.647 11.1121L109.492 11.3167C109.444 11.1689 109.367 11.0283 109.262 10.8948C109.16 10.7613 109.021 10.6519 108.845 10.5667C108.668 10.4814 108.448 10.4388 108.184 10.4388C107.823 10.4388 107.522 10.5198 107.281 10.6817C107.039 10.8408 106.918 11.0468 106.918 11.2996C106.918 11.5184 106.999 11.6945 107.161 11.828C107.323 11.9616 107.585 12.0709 107.945 12.1562L108.985 12.3948C109.587 12.534 110.036 12.7485 110.332 13.0383C110.627 13.328 110.775 13.7045 110.775 14.1675C110.775 14.5596 110.661 14.909 110.434 15.2158C110.21 15.5198 109.896 15.7584 109.492 15.9317C109.092 16.105 108.627 16.1917 108.099 16.1917C107.366 16.1917 106.768 16.0354 106.305 15.7229C105.842 15.4076 105.558 14.9601 105.452 14.3806L106.684 14.1931C106.761 14.5141 106.918 14.757 107.157 14.9218C107.396 15.0837 107.707 15.1647 108.09 15.1647C108.508 15.1647 108.842 15.078 109.092 14.9047C109.342 14.7286 109.467 14.5141 109.467 14.2613C109.467 14.0567 109.39 13.8849 109.237 13.7456C109.086 13.6064 108.854 13.5013 108.542 13.4303L107.434 13.1874C106.823 13.0482 106.372 12.8266 106.079 12.5226C105.789 12.2187 105.644 11.8337 105.644 11.3678C105.644 10.9814 105.752 10.6434 105.968 10.3536C106.184 10.0638 106.482 9.83798 106.863 9.67605C107.244 9.51127 107.68 9.42889 108.171 9.42889C108.879 9.42889 109.435 9.5823 109.842 9.88912C110.248 10.1931 110.516 10.6008 110.647 11.1121ZM115.045 16.1917C114.4 16.1917 113.845 16.0539 113.379 15.7783C112.916 15.4999 112.558 15.1093 112.305 14.6064C112.055 14.1008 111.93 13.5084 111.93 12.8295C111.93 12.159 112.055 11.5681 112.305 11.0567C112.558 10.5454 112.91 10.1462 113.362 9.85929C113.816 9.57235 114.347 9.42889 114.955 9.42889C115.325 9.42889 115.683 9.48997 116.029 9.61213C116.376 9.73429 116.687 9.92605 116.962 10.1874C117.238 10.4488 117.455 10.7883 117.614 11.2059C117.774 11.6206 117.853 12.1249 117.853 12.7187V13.1704H112.65V12.2158H116.605C116.605 11.8806 116.536 11.5837 116.4 11.3252C116.264 11.0638 116.072 10.8579 115.825 10.7073C115.58 10.5567 115.293 10.4814 114.964 10.4814C114.606 10.4814 114.293 10.5695 114.026 10.7456C113.762 10.9189 113.558 11.1462 113.413 11.4275C113.271 11.7059 113.2 12.0084 113.2 12.3351V13.0809C113.2 13.5184 113.276 13.8905 113.43 14.1974C113.586 14.5042 113.803 14.7385 114.082 14.9005C114.36 15.0596 114.685 15.1391 115.058 15.1391C115.299 15.1391 115.519 15.105 115.718 15.0368C115.917 14.9658 116.089 14.8607 116.234 14.7215C116.379 14.5823 116.489 14.4104 116.566 14.2059L117.772 14.4232C117.676 14.7783 117.502 15.0894 117.252 15.3564C117.005 15.6206 116.694 15.8266 116.319 15.9743C115.947 16.1192 115.522 16.1917 115.045 16.1917Z" fill="#152B2F"/>
<defs>
<filter id="filter0_ii_753_5632" x="0" y="0.0595703" width="136" height="26" filterUnits="userSpaceOnUse" color-interpolation-filters="sRGB">
<feFlood flood-opacity="0" result="BackgroundImageFix"/>
<feBlend mode="normal" in="SourceGraphic" in2="BackgroundImageFix" result="shape"/>
<feColorMatrix in="SourceAlpha" type="matrix" values="0 0 0 0 0 0 0 0 0 0 0 0 0 0 0 0 0 0 127 0" result="hardAlpha"/>
<feOffset dy="2"/>
<feGaussianBlur stdDeviation="2"/>
<feComposite in2="hardAlpha" operator="arithmetic" k2="-1" k3="1"/>
<feColorMatrix type="matrix" values="0 0 0 0 0.917647 0 0 0 0 0.960784 0 0 0 0 0.956863 0 0 0 0.65 0"/>
<feBlend mode="normal" in2="shape" result="effect1_innerShadow_753_5632"/>
<feColorMatrix in="SourceAlpha" type="matrix" values="0 0 0 0 0 0 0 0 0 0 0 0 0 0 0 0 0 0 127 0" result="hardAlpha"/>
<feOffset dy="1"/>
<feGaussianBlur stdDeviation="0.5"/>
<feComposite in2="hardAlpha" operator="arithmetic" k2="-1" k3="1"/>
<feColorMatrix type="matrix" values="0 0 0 0 0.631016 0 0 0 0 0.689102 0 0 0 0 0.0828248 0 0 0 1 0"/>
<feBlend mode="normal" in2="effect1_innerShadow_753_5632" result="effect2_innerShadow_753_5632"/>
</filter>
</defs>
</svg>
